<?xml version="1.0" encoding="UTF-8"?>
<svg version="1.1" xmlns="http://www.w3.org/2000/svg" width="500" height="515">
<path d="M0 0 C1.18630915 0.97930894 2.37387952 1.95709145 3.5625 2.93359375 C4.77114453 3.93452018 5.97948229 4.93581716 7.1875 5.9375 C7.7652417 6.41058594 8.3429834 6.88367188 8.93823242 7.37109375 C10.33023424 8.53670732 11.67053519 9.76353432 13 11 C13 11.66 13 12.32 13 13 C13.59820557 13.27062256 14.19641113 13.54124512 14.81274414 13.82006836 C16.98238126 14.99049544 18.31160445 16.10053752 19.99609375 17.87890625 C20.82427612 18.75301147 20.82427612 18.75301147 21.66918945 19.64477539 C22.25273193 20.27762451 22.83627441 20.91047363 23.4375 21.5625 C24.35631958 22.55527954 24.35631958 22.55527954 25.29370117 23.56811523 C39.48040908 39.14635541 50.92088613 56.53658068 60.92675781 75.02050781 C61.6146151 76.28919454 62.30872976 77.55452041 63.01074219 78.81542969 C77.19459841 104.40282405 84.30031864 133.18741845 88 162 C88.17273438 163.22291748 88.34546875 164.44583496 88.5234375 165.70581055 C89.07851641 170.18341464 89.178364 174.61702541 89.203125 179.125 C89.21018463 179.98101807 89.21724426 180.83703613 89.22451782 181.71899414 C89.456163 218.10744728 89.456163 218.10744728 86 236 C85.70198486 237.55895996 85.70198486 237.55895996 85.39794922 239.14941406 C77.75719501 277.78244095 60.99894446 315.41777152 36 346 C35.56526367 346.5377002 35.13052734 347.07540039 34.68261719 347.62939453 C22.98941067 362.0063573 9.87271359 375.89026214 -5 387 C-5.60118652 387.46116211 -6.20237305 387.92232422 -6.82177734 388.39746094 C-37.48493574 411.8602727 -72.95976831 428.72922897 -111 436 C-111.72445313 436.14131348 -112.44890625 436.28262695 -113.1953125 436.42822266 C-176.72455213 448.58555782 -245.10000278 434.95797464 -298.66845703 398.74536133 C-319.34663335 384.47525121 -338.4947496 367.82737673 -354 348 C-354.65097656 347.21625 -355.30195313 346.4325 -355.97265625 345.625 C-361.89944877 338.46100427 -367.01152021 330.83250418 -372 323 C-372.41008301 322.36239746 -372.82016602 321.72479492 -373.24267578 321.06787109 C-387.6550344 298.43949541 -396.94396875 273.07564192 -403.3125 247.125 C-403.67661987 245.64676758 -403.67661987 245.64676758 -404.0480957 244.13867188 C-407.85228234 227.91537011 -408.34459913 212.21178228 -408.31567383 195.61401367 C-408.31252136 191.8380829 -408.33601335 188.06294342 -408.36132812 184.28710938 C-408.41376843 164.19562753 -406.15087354 145.3969009 -401 126 C-400.72567139 124.96262695 -400.72567139 124.96262695 -400.44580078 123.90429688 C-386.47550678 71.96993951 -353.47961463 23.74335308 -310 -8 C-309.35482422 -8.47888672 -308.70964844 -8.95777344 -308.04492188 -9.45117188 C-231.24638928 -66.29243421 -127.33548146 -73.35900195 0 0 Z " fill="#5A649A" transform="translate(408,67)"/>
<path d="M0 0 C1.18630915 0.97930894 2.37387952 1.95709145 3.5625 2.93359375 C4.77114453 3.93452018 5.97948229 4.93581716 7.1875 5.9375 C7.7652417 6.41058594 8.3429834 6.88367188 8.93823242 7.37109375 C10.33023424 8.53670732 11.67053519 9.76353432 13 11 C13 11.66 13 12.32 13 13 C13.59820557 13.27062256 14.19641113 13.54124512 14.81274414 13.82006836 C16.98238126 14.99049544 18.31160445 16.10053752 19.99609375 17.87890625 C20.82427612 18.75301147 20.82427612 18.75301147 21.66918945 19.64477539 C22.25273193 20.27762451 22.83627441 20.91047363 23.4375 21.5625 C24.35631958 22.55527954 24.35631958 22.55527954 25.29370117 23.56811523 C39.48040908 39.14635541 50.92088613 56.53658068 60.92675781 75.02050781 C61.6146151 76.28919454 62.30872976 77.55452041 63.01074219 78.81542969 C77.19459841 104.40282405 84.30031864 133.18741845 88 162 C88.17273438 163.22291748 88.34546875 164.44583496 88.5234375 165.70581055 C89.07851641 170.18341464 89.178364 174.61702541 89.203125 179.125 C89.21018463 179.98101807 89.21724426 180.83703613 89.22451782 181.71899414 C89.456163 218.10744728 89.456163 218.10744728 86 236 C85.70198486 237.55895996 85.70198486 237.55895996 85.39794922 239.14941406 C77.75719501 277.78244095 60.99894446 315.41777152 36 346 C35.56526367 346.5377002 35.13052734 347.07540039 34.68261719 347.62939453 C22.98941067 362.0063573 9.87271359 375.89026214 -5 387 C-5.60118652 387.46116211 -6.20237305 387.92232422 -6.82177734 388.39746094 C-37.48493574 411.8602727 -72.95976831 428.72922897 -111 436 C-111.72445313 436.14131348 -112.44890625 436.28262695 -113.1953125 436.42822266 C-176.72455213 448.58555782 -245.10000278 434.95797464 -298.66845703 398.74536133 C-319.34663335 384.47525121 -338.4947496 367.82737673 -354 348 C-354.65097656 347.21625 -355.30195313 346.4325 -355.97265625 345.625 C-361.89944877 338.46100427 -367.01152021 330.83250418 -372 323 C-372.41008301 322.36239746 -372.82016602 321.72479492 -373.24267578 321.06787109 C-387.6550344 298.43949541 -396.94396875 273.07564192 -403.3125 247.125 C-403.67661987 245.64676758 -403.67661987 245.64676758 -404.0480957 244.13867188 C-407.85228234 227.91537011 -408.34459913 212.21178228 -408.31567383 195.61401367 C-408.31252136 191.8380829 -408.33601335 188.06294342 -408.36132812 184.28710938 C-408.41376843 164.19562753 -406.15087354 145.3969009 -401 126 C-400.72567139 124.96262695 -400.72567139 124.96262695 -400.44580078 123.90429688 C-386.47550678 71.96993951 -353.47961463 23.74335308 -310 -8 C-309.35482422 -8.47888672 -308.70964844 -8.95777344 -308.04492188 -9.45117188 C-231.24638928 -66.29243421 -127.33548146 -73.35900195 0 0 Z M-290 34 C-290 34.66 -290 35.32 -290 36 C-290.55993652 36.23614014 -291.11987305 36.47228027 -291.69677734 36.71557617 C-294.54749113 38.30531597 -296.53084086 40.25395924 -298.8515625 42.55078125 C-299.78049316 43.47012451 -300.70942383 44.38946777 -301.66650391 45.33666992 C-302.65365999 46.32762735 -303.63980695 47.31959093 -304.625 48.3125 C-305.12376648 48.81375397 -305.62253296 49.31500793 -306.13641357 49.83145142 C-313.39041371 57.14176461 -320.24133412 64.41305318 -326 73 C-326.44923828 73.65371582 -326.89847656 74.30743164 -327.36132812 74.98095703 C-350.9333225 109.49933362 -363.47713085 149.1115873 -363.375 190.875 C-363.37478851 191.67959656 -363.37457703 192.48419312 -363.37435913 193.31317139 C-363.337345 207.50870344 -362.09104088 221.11444494 -359 235 C-358.81808105 235.8461084 -358.63616211 236.6922168 -358.44873047 237.56396484 C-351.98173496 266.90528406 -337.7847174 294.68414469 -319 318 C-318.31679688 318.88816406 -317.63359375 319.77632813 -316.9296875 320.69140625 C-288.24572332 357.28254687 -245.285387 381.81046077 -200 391 C-199.24412598 391.16226074 -198.48825195 391.32452148 -197.70947266 391.49169922 C-185.09140607 394.10596189 -172.45885617 394.28448524 -159.625 394.3125 C-158.81556946 394.31617584 -158.00613892 394.31985168 -157.17218018 394.32363892 C-102.91685591 394.45221907 -52.92869301 371.88009453 -14.625 334 C-7.45501071 326.76453136 -0.92173472 319.28421783 5 311 C5.40589355 310.44376953 5.81178711 309.88753906 6.22998047 309.31445312 C38.88554291 264.22421033 48.89199919 209.36801518 41 155 C39.97536196 149.24618417 38.53468456 143.63536172 37 138 C36.45592696 135.70890345 35.91404105 133.41728568 35.375 131.125 C34.57391639 127.74159981 33.96246651 125.94369976 32 123 C31.60986284 121.0103005 31.26797351 119.00980131 31 117 C30.34 117 29.68 117 29 117 C28.938125 116.030625 28.87625 115.06125 28.8125 114.0625 C28.2402364 109.95713066 26.4846944 106.91348527 24.3515625 103.40625 C23 101 23 101 21.5625 97.63671875 C16.8871396 86.75481741 10.29221066 77.27020632 3 68 C2.37996094 67.18660156 1.75992187 66.37320313 1.12109375 65.53515625 C-6.48280744 55.29828147 -6.48280744 55.29828147 -16.32421875 47.3984375 C-18 46 -18 46 -19.7890625 43.19140625 C-22.35126543 39.49296139 -25.11707745 37.22674344 -28.6875 34.5625 C-29.3074585 34.08804443 -29.92741699 33.61358887 -30.56616211 33.12475586 C-31.80337266 32.17848348 -33.04330328 31.23575524 -34.28613281 30.296875 C-36.56244074 28.57440381 -38.81295548 26.81971996 -41.0625 25.0625 C-42.10857422 24.25232422 -42.10857422 24.25232422 -43.17578125 23.42578125 C-44.71693853 22.22123648 -46.23610829 20.98863867 -47.75 19.75 C-53.05265518 15.62571264 -58.37871323 13.13507773 -65 12 C-65.33 11.01 -65.66 10.02 -66 9 C-69.79146877 7.36574622 -73.45838543 6.14771307 -77.4375 5.0625 C-80.12935339 4.25966653 -82.30848331 3.43380555 -84.8125 2.25 C-95.27123395 -2.53010864 -106.63828511 -6.22473205 -118 -8 C-119.41697592 -8.24561838 -120.83360998 -8.49321269 -122.25 -8.7421875 C-123.83318804 -9.01646501 -125.41652321 -9.28989449 -127 -9.5625 C-127.73605469 -9.68971436 -128.47210938 -9.81692871 -129.23046875 -9.94799805 C-183.50841251 -19.0083318 -248.45966151 -3.58411578 -290 34 Z " fill="#626262" transform="translate(408,67)"/>
<path d="M0 0 C3.82075506 0.14150945 6.27011288 0.49469353 9.4375 2.6875 C11.4218681 5.62436479 11.31577173 7.526511 11 11 C11.5775 10.7525 12.155 10.505 12.75 10.25 C13.86375 10.12625 13.86375 10.12625 15 10 C16.75 11.5 16.75 11.5 19 14 C20.30516619 15.11282591 21.61844386 16.21617379 22.9375 17.3125 C26.67902388 20.53843213 29.23147281 23.92863648 32 28 C32.66 28.33 33.32 28.66 34 29 C34 29.66 34 30.32 34 31 C33.34 31 32.68 31 32 31 C32.33 31.66 32.66 32.32 33 33 C34.093125 33.0825 35.18625 33.165 36.3125 33.25 C40 34 40 34 42.4375 36.6875 C44.15112245 40.32037959 44.73893512 42.05901268 44 46 C42.54315788 48.43548415 41.07317465 49.97503871 39 52 C38.01 52 37.02 52 36 52 C35.773125 52.721875 35.54625 53.44375 35.3125 54.1875 C33.16498496 58.78931794 30.01697297 61.70361576 25.5 63.9375 C22 65 22 65 19.25 64.3125 C17.46264879 63.26987846 15.72169765 62.14779843 14 61 C11.82886951 60.29505585 11.82886951 60.29505585 9.5 59.8125 C8.7265625 59.63332031 7.953125 59.45414063 7.15625 59.26953125 C4.82060992 58.8200992 4.82060992 58.8200992 2 60 C2.474375 60.4125 2.94875 60.825 3.4375 61.25 C5.30179528 63.33801071 5.58604634 64.23424365 6 67 C5.8128999 68.87913581 5.62493885 70.75820522 5.42700195 72.63623047 C5.12792472 76.20783137 4.91948328 79.5434261 6 83 C9.8945839 86.85634815 13.98015918 88.78701912 19 91 C19.99 91.66 20.98 92.32 22 93 C17.04522891 94.63204491 13.41345213 93.18005109 8.6875 91.5625 C7.94693359 91.31951172 7.20636719 91.07652344 6.44335938 90.82617188 C4.62539885 90.22800422 2.81219245 89.61542141 1 89 C1 89.99 1 90.98 1 92 C1.86625 92.2784375 1.86625 92.2784375 2.75 92.5625 C6.14462336 94.73128715 7.20497313 97.40994626 9 101 C9 101.66 9 102.32 9 103 C9.99 103.33 10.98 103.66 12 104 C12 104.66 12 105.32 12 106 C9.21788056 105.62403791 7.4120716 105.32681541 5.1875 103.5625 C4 102 4 102 4 100 C2.02 100 0.04 100 -2 100 C-3.98 96.04 -3.98 96.04 -6 92 C-7.32 92.33 -8.64 92.66 -10 93 C-10.22906662 98.83724935 -9.35851472 104.10439585 -8.1875 109.8125 C-7.81601635 111.68846782 -7.4462529 113.56477703 -7.078125 115.44140625 C-6.89443359 116.3761377 -6.71074219 117.31086914 -6.52148438 118.27392578 C-5.75986138 122.2553314 -5.08886146 126.24928327 -4.4375 130.25 C-3.63958236 135.14966295 -2.82031326 140.04188699 -1.92797852 144.92529297 C2.23014976 167.81860843 5.14293344 190.8115608 7 214 C7.08365814 215.02238266 7.16731628 216.04476532 7.25350952 217.09812927 C7.87815635 225.17815346 8.17258298 233.20580371 8.203125 241.30859375 C8.20882507 242.51838394 8.21452515 243.72817413 8.22039795 244.97462463 C8.22976555 247.5114761 8.23634869 250.04833929 8.24023438 252.58520508 C8.24996796 256.42486003 8.28108276 260.26398501 8.3125 264.10351562 C8.42570962 290.34708068 8.42570962 290.34708068 5 300 C4.34 300.33 3.68 300.66 3 301 C3 300.34 3 299.68 3 299 C2.41089844 298.74863281 1.82179688 298.49726563 1.21484375 298.23828125 C-13.10002161 290.23508492 -22.90791324 265.0264323 -30.0456543 250.88330078 C-30.69892547 249.59413889 -31.36513285 248.31147354 -32.04223633 247.03466797 C-34.46843087 242.38659001 -36.19579788 237.80822446 -37.5625 232.75 C-37.87610474 231.59371094 -37.87610474 231.59371094 -38.19604492 230.4140625 C-42.51628972 213.80723508 -48.04259868 190.72746457 -39 175 C-38.00878611 173.34886028 -37.00845824 171.7031643 -36 170.0625 C-29.01745976 158.56599435 -28.203521 147.68774865 -27.26953125 134.53076172 C-26.8077291 128.48132084 -26.22499589 122.44368994 -25.63943481 116.40515137 C-25.44013113 114.33976639 -25.24602004 112.2739408 -25.05249023 110.20800781 C-24.93075439 108.93924805 -24.80901855 107.67048828 -24.68359375 106.36328125 C-24.57587646 105.23188721 -24.46815918 104.10049316 -24.35717773 102.93481445 C-24.06478447 100.53231316 -23.66261805 98.32181647 -23 96 C-24.11375 95.95875 -25.2275 95.9175 -26.375 95.875 C-32.0471971 95.21426019 -36.34564892 92.11879673 -41 89 C-41 90.32 -41 91.64 -41 93 C-40.0409375 93.37125 -40.0409375 93.37125 -39.0625 93.75 C-37 95 -37 95 -36.38671875 96.81640625 C-34.31601194 108.50857906 -38.82661281 118.26036725 -45 128 C-47.82070682 131.83242232 -50.85849959 135.42760799 -54 139 C-54.77730469 139.88816406 -55.55460938 140.77632812 -56.35546875 141.69140625 C-59.18562404 144.84626152 -62.07333452 147.93481811 -65 151 C-65.68916504 151.72316406 -66.37833008 152.44632813 -67.08837891 153.19140625 C-77.34897057 163.88585423 -87.67636471 173.73088147 -100 182 C-100.7209082 182.48484863 -101.44181641 182.96969727 -102.18457031 183.46923828 C-160.12462447 222 -160.12462447 222 -176 222 C-175.48068025 215.89035589 -172.83944987 210.92481484 -170.1875 205.5 C-169.45152588 203.98237061 -169.45152588 203.98237061 -168.70068359 202.43408203 C-149.84335263 163.93643742 -127.40549203 128.56122399 -94.65307617 100.44091797 C-91.79943438 97.95697167 -91.79943438 97.95697167 -90.1640625 94.59765625 C-87.41552938 88.4641847 -79.01208576 84.56791191 -73.06640625 81.78125 C-65.49549203 78.91890058 -58.90706864 78.50654433 -51.125 80.875 C-49 82 -49 82 -48 85 C-47.34 85 -46.68 85 -46 85 C-46.34933594 84.28714844 -46.69867188 83.57429688 -47.05859375 82.83984375 C-47.51363281 81.88207031 -47.96867188 80.92429687 -48.4375 79.9375 C-48.88996094 78.99777344 -49.34242188 78.05804688 -49.80859375 77.08984375 C-51.11110226 73.71186266 -51.53934966 70.57975264 -52 67 C-57.67040952 67.53047884 -63.34055723 68.06365574 -69.01049805 68.59912109 C-70.93133009 68.7801654 -72.85222666 68.96052675 -74.77319336 69.14013672 C-80.31087112 69.65816354 -85.84706559 70.18875937 -91.38153076 70.7401123 C-93.09172636 70.90985224 -94.80220938 71.07672748 -96.51300049 71.24035645 C-98.82382682 71.46373028 -101.13258386 71.70220086 -103.44140625 71.9453125 C-104.73892822 72.07695801 -106.0364502 72.20860352 -107.37329102 72.34423828 C-113.53043139 73.45753879 -117.62262119 75.48997334 -122 80 C-126.79550868 83.75061573 -130.82054312 85.55211368 -136.921875 85.859375 C-138.97707296 85.92927327 -138.97707296 85.92927327 -140.80859375 86.49609375 C-171.5060556 93.5548684 -206.80781581 76.04371099 -231.93408203 60.31933594 C-235.57513035 57.99409071 -239.17598729 55.61444088 -242.75 53.1875 C-243.73383667 52.5214978 -243.73383667 52.5214978 -244.73754883 51.84204102 C-248.52469938 49.21370815 -252.051348 46.58452543 -255 43 C-255.12792969 40.34448242 -255.12792969 40.34448242 -255 38 C-246.18308551 36.42080213 -237.66570495 35.68284484 -228.71484375 35.6640625 C-227.47593887 35.65572891 -226.237034 35.64739532 -224.96058655 35.6388092 C-220.95275121 35.61942731 -216.94535303 35.61922887 -212.9375 35.625 C-212.25242371 35.6250919 -211.56734741 35.62518379 -210.86151123 35.62527847 C-177.08336585 35.63113742 -143.89614985 37.97959684 -110.64208984 44.15625 C-104.73572636 45.24203585 -98.81401872 46.23879899 -92.89453125 47.25 C-89.36007882 47.85793804 -85.82586528 48.46724076 -82.29177856 49.07730103 C-79.93768293 49.48287882 -77.58325217 49.88651638 -75.22848511 50.28817749 C-71.91652834 50.85483266 -68.6065563 51.43194101 -65.296875 52.01171875 C-64.28691971 52.18239868 -63.27696442 52.35307861 -62.23640442 52.52893066 C-61.31115463 52.69300415 -60.38590485 52.85707764 -59.43261719 53.02612305 C-58.62153503 53.16648483 -57.81045288 53.30684662 -56.97479248 53.45146179 C-55 54 -55 54 -53 56 C-50.9837767 55.28436734 -50.9837767 55.28436734 -49 54 C-48.19471111 51.94999129 -48.19471111 51.94999129 -48 50 C-48.94875 49.7525 -49.8975 49.505 -50.875 49.25 C-54 48 -54 48 -55.375 46 C-56 44 -56 44 -56 42 C-56.33 41.01 -56.66 40.02 -57 39 C-57.639375 38.731875 -58.27875 38.46375 -58.9375 38.1875 C-61 37 -61 37 -62.25 34.125 C-63 31 -63 31 -63 27 C-62.34 27 -61.68 27 -61 27 C-60.690625 28.216875 -60.38125 29.43375 -60.0625 30.6875 C-58.64935413 34.58226788 -57.01184979 35.94960894 -53.375 37.875 C-52.57835937 38.24367187 -51.78171875 38.61234375 -50.9609375 38.9921875 C-49 40 -49 40 -48 42 C-47.01 41.67 -46.02 41.34 -45 41 C-45.54140625 39.66195312 -45.54140625 39.66195312 -46.09375 38.296875 C-46.5578125 37.12640625 -47.021875 35.9559375 -47.5 34.75 C-47.9640625 33.58984375 -48.428125 32.4296875 -48.90625 31.234375 C-50 28 -50 28 -50 24 C-49.34 24 -48.68 24 -48 24 C-47.17196441 25.65607117 -46.34680227 27.3136573 -45.53808594 28.97924805 C-43.76750535 32.42588388 -42.04711623 35.53417162 -39 38 C-34.39733678 39.34511444 -29.80565499 38.71117374 -25.109375 38.19921875 C-21.21886771 37.79976277 -19.13800131 38.52097896 -16 41 C-16.11458693 39.56163249 -16.24209116 38.12429034 -16.375 36.6875 C-16.47941406 35.48673828 -16.47941406 35.48673828 -16.5859375 34.26171875 C-16.89564426 31.72775559 -16.89564426 31.72775559 -19 29 C-18.71342616 23.2134129 -16.5549363 18.52446439 -13 14 C-12.525625 13.38125 -12.05125 12.7625 -11.5625 12.125 C-9.36206924 10.54068985 -7.63861736 10.78605805 -5 11 C-5.33 10.01 -5.66 9.02 -6 8 C-5.34 7.566875 -4.68 7.13375 -4 6.6875 C-3.34 6.130625 -2.68 5.57375 -2 5 C-2 4.01 -2 3.02 -2 2 C-1.34 1.34 -0.68 0.68 0 0 Z " fill="#343769" transform="translate(327,134)"/>
<path d="M0 0 C1.06831055 0.23106445 2.13662109 0.46212891 3.23730469 0.70019531 C33.75420098 7.4599982 61.47986126 18.7833978 87 37 C88.11787743 37.7769232 89.23635879 38.55297823 90.35546875 39.328125 C96.01555272 43.31672663 96.01555272 43.31672663 98 45 C98 45.66 98 46.32 98 47 C98.598125 47.28875 99.19625 47.5775 99.8125 47.875 C102 49 102 49 105 51 C105 51.66 105 52.32 105 53 C105.54269531 53.21785156 106.08539063 53.43570313 106.64453125 53.66015625 C109.79709562 55.45340597 112.16717014 57.87082573 114.6875 60.4375 C115.21714355 60.97318604 115.74678711 61.50887207 116.29248047 62.06079102 C121.21303706 67.10387882 125.66063332 72.4505435 130 78 C130.77730469 78.94875 131.55460937 79.8975 132.35546875 80.875 C161.07590214 116.67280569 177.49367112 163.13389922 177.26074219 208.93579102 C177.2500234 211.43205113 177.26071033 213.92758959 177.2734375 216.42382812 C177.28693356 230.67294784 176.14000006 244.65561024 172.875 258.5625 C172.55849487 259.92314575 172.55849487 259.92314575 172.2355957 261.3112793 C168.06113087 278.55209863 162.26953895 295.29155862 154 311 C153.68595215 311.59925293 153.3719043 312.19850586 153.04833984 312.81591797 C145.07971006 327.80816655 135.197262 341.28864283 124 354 C123.38640625 354.72445313 122.7728125 355.44890625 122.140625 356.1953125 C92.85340514 390.64266158 50.88774151 414.13175043 7 424 C6.0610791 424.21172852 5.1221582 424.42345703 4.15478516 424.64160156 C-10.47674935 427.76649521 -24.96865311 428.40683216 -39.875 428.5 C-41.1517308 428.51580109 -41.1517308 428.51580109 -42.45425415 428.53192139 C-54.65115915 428.64876492 -65.91075461 427.18692266 -77.79391479 424.4776001 C-81.21926647 423.7360384 -84.66567125 423.18576395 -88.125 422.625 C-115.46159719 417.5442587 -141.59232919 404.08195584 -164 388 C-164.60424805 387.566875 -165.20849609 387.13375 -165.83105469 386.6875 C-174.47280944 380.42039174 -182.32032607 373.39620396 -190 366 C-190.54060059 365.48131348 -191.08120117 364.96262695 -191.63818359 364.42822266 C-198.38038642 357.92934745 -198.38038642 357.92934745 -201 355 C-201 354.34 -201 353.68 -201 353 C-201.66 353 -202.32 353 -203 353 C-206 349.53846154 -206 349.53846154 -206 347 C-206.66 347 -207.32 347 -208 347 C-209.23339844 345.59814453 -209.23339844 345.59814453 -210.609375 343.6328125 C-211.1137207 342.91722168 -211.61806641 342.20163086 -212.13769531 341.46435547 C-212.93578613 340.30637451 -212.93578613 340.30637451 -213.75 339.125 C-214.29495117 338.34141113 -214.83990234 337.55782227 -215.40136719 336.75048828 C-219.17171173 331.29150829 -222.77281931 325.79996086 -226 320 C-226.88171875 318.48599609 -226.88171875 318.48599609 -227.78125 316.94140625 C-237.47239908 299.9116608 -244.60225754 281.08007886 -249 262 C-249.15017578 261.3488623 -249.30035156 260.69772461 -249.45507812 260.02685547 C-253.12310248 243.7140162 -254.41108896 227.84273803 -254.375 211.1875 C-254.37445618 210.24179138 -254.37391235 209.29608276 -254.37335205 208.32171631 C-254.29850387 179.9446765 -249.60216022 153.04817769 -238 127 C-237.67660645 126.26571777 -237.35321289 125.53143555 -237.02001953 124.77490234 C-224.36284671 96.29183792 -205.15919466 68.97693996 -181 49 C-180.16597656 48.26652344 -179.33195312 47.53304687 -178.47265625 46.77734375 C-151.19005665 23.16236385 -117.90045128 7.83560722 -82.8125 0.0625 C-81.91764893 -0.13690186 -81.02279785 -0.33630371 -80.10083008 -0.54174805 C-55.2187726 -5.70013931 -24.80008782 -5.46197784 0 0 Z M-169 55 C-169 55.66 -169 56.32 -169 57 C-169.55993652 57.23614014 -170.11987305 57.47228027 -170.69677734 57.71557617 C-173.54749113 59.30531597 -175.53084086 61.25395924 -177.8515625 63.55078125 C-178.78049316 64.47012451 -179.70942383 65.38946777 -180.66650391 66.33666992 C-181.65365999 67.32762735 -182.63980695 68.31959093 -183.625 69.3125 C-184.12376648 69.81375397 -184.62253296 70.31500793 -185.13641357 70.83145142 C-192.39041371 78.14176461 -199.24133412 85.41305318 -205 94 C-205.44923828 94.65371582 -205.89847656 95.30743164 -206.36132812 95.98095703 C-229.9333225 130.49933362 -242.47713085 170.1115873 -242.375 211.875 C-242.37478851 212.67959656 -242.37457703 213.48419312 -242.37435913 214.31317139 C-242.337345 228.50870344 -241.09104088 242.11444494 -238 256 C-237.81808105 256.8461084 -237.63616211 257.6922168 -237.44873047 258.56396484 C-230.98173496 287.90528406 -216.7847174 315.68414469 -198 339 C-197.31679687 339.88816406 -196.63359375 340.77632813 -195.9296875 341.69140625 C-167.24572332 378.28254687 -124.285387 402.81046077 -79 412 C-78.24412598 412.16226074 -77.48825195 412.32452148 -76.70947266 412.49169922 C-64.09140607 415.10596189 -51.45885617 415.28448524 -38.625 415.3125 C-37.81556946 415.31617584 -37.00613892 415.31985168 -36.17218018 415.32363892 C18.08314409 415.45221907 68.07130699 392.88009453 106.375 355 C113.54498929 347.76453136 120.07826528 340.28421783 126 332 C126.40589355 331.44376953 126.81178711 330.88753906 127.22998047 330.31445312 C159.88554291 285.22421033 169.89199919 230.36801518 162 176 C160.97536196 170.24618417 159.53468456 164.63536172 158 159 C157.45592696 156.70890345 156.91404105 154.41728568 156.375 152.125 C155.57391639 148.74159981 154.96246651 146.94369976 153 144 C152.60986284 142.0103005 152.26797351 140.00980131 152 138 C151.34 138 150.68 138 150 138 C149.938125 137.030625 149.87625 136.06125 149.8125 135.0625 C149.2402364 130.95713066 147.4846944 127.91348527 145.3515625 124.40625 C144 122 144 122 142.5625 118.63671875 C137.8871396 107.75481741 131.29221066 98.27020632 124 89 C123.37996094 88.18660156 122.75992187 87.37320313 122.12109375 86.53515625 C114.51719256 76.29828147 114.51719256 76.29828147 104.67578125 68.3984375 C103 67 103 67 101.2109375 64.19140625 C98.64873457 60.49296139 95.88292255 58.22674344 92.3125 55.5625 C91.6925415 55.08804443 91.07258301 54.61358887 90.43383789 54.12475586 C89.19662734 53.17848348 87.95669672 52.23575524 86.71386719 51.296875 C84.43755926 49.57440381 82.18704452 47.81971996 79.9375 46.0625 C78.89142578 45.25232422 78.89142578 45.25232422 77.82421875 44.42578125 C76.28306147 43.22123648 74.76389171 41.98863867 73.25 40.75 C67.94734482 36.62571264 62.62128677 34.13507773 56 33 C55.67 32.01 55.34 31.02 55 30 C51.20853123 28.36574622 47.54161457 27.14771307 43.5625 26.0625 C40.87064661 25.25966653 38.69151669 24.43380555 36.1875 23.25 C25.72876605 18.46989136 14.36171489 14.77526795 3 13 C1.58302408 12.75438162 0.16639002 12.50678731 -1.25 12.2578125 C-2.83318804 11.98353499 -4.41652321 11.71010551 -6 11.4375 C-6.73605469 11.31028564 -7.47210938 11.18307129 -8.23046875 11.05200195 C-62.50841251 1.9916682 -127.45966151 17.41588422 -169 55 Z " fill="#020408" transform="translate(287,46)"/>
<path d="M0 0 C0.93226994 3.33527608 1.34800431 6.62543686 1.75 10.0625 C2.6871375 17.5538448 4.04658386 24.9562683 5.4375 32.375 C5.65946045 33.55908447 5.8814209 34.74316895 6.11010742 35.96313477 C6.54508468 38.27730345 6.98069093 40.59135401 7.41699219 42.90527344 C12.29246811 68.7853123 15.89758017 94.74793367 18 121 C18.08365814 122.02238266 18.16731628 123.04476532 18.25350952 124.09812927 C18.87815635 132.17815346 19.17258298 140.20580371 19.203125 148.30859375 C19.20882507 149.51838394 19.21452515 150.72817413 19.22039795 151.97462463 C19.22976555 154.5114761 19.23634869 157.04833929 19.24023438 159.58520508 C19.24996796 163.42486003 19.28108276 167.26398501 19.3125 171.10351562 C19.42570962 197.34708068 19.42570962 197.34708068 16 207 C15.34 207.33 14.68 207.66 14 208 C14 207.34 14 206.68 14 206 C13.11634766 205.62294922 13.11634766 205.62294922 12.21484375 205.23828125 C-2.30794418 197.11883897 -17.10959669 166.51815129 -22 151 C-21.67 150.01 -21.34 149.02 -21 148 C-20.74420166 148.49177734 -20.48840332 148.98355469 -20.22485352 149.49023438 C-17.17654169 155.34103738 -14.09770152 161.17520485 -11 167 C-10.61602051 167.72477539 -10.23204102 168.44955078 -9.83642578 169.19628906 C-1.23710842 187.34985023 -1.23710842 187.34985023 12 201 C14.64371492 159.83358197 12.73733236 118.97442762 7.51904297 78.09570312 C7.02567503 74.22755276 6.56090971 70.35625255 6.09765625 66.484375 C4.13612135 50.53707502 1.413864 34.82340413 -1.71411133 19.0690918 C-1.86497696 18.30260315 -2.01584259 17.5361145 -2.17127991 16.74639893 C-2.45472878 15.3106634 -2.74232684 13.87573814 -3.03489685 12.4418335 C-3.73296221 8.90848643 -4.15428469 5.6027208 -4 2 C-2.68 1.34 -1.36 0.68 0 0 Z " fill="#111446" transform="translate(316,227)"/>
<path d="M0 0 C1.23890488 -0.00833359 2.47780975 -0.01666718 3.7542572 -0.0252533 C7.76209254 -0.04463519 11.76949072 -0.04483363 15.77734375 -0.0390625 C16.46242004 -0.0389706 17.14749634 -0.03887871 17.85333252 -0.03878403 C51.6314779 -0.03292508 84.8186939 2.31553434 118.07275391 8.4921875 C123.97911739 9.57797335 129.90082503 10.57473649 135.8203125 11.5859375 C139.35476493 12.19387554 142.88897847 12.80317826 146.42306519 13.41323853 C148.77716082 13.81881632 151.13159158 14.22245388 153.48635864 14.62411499 C156.79831541 15.19077016 160.10828745 15.76787851 163.41796875 16.34765625 C164.42792404 16.51833618 165.43787933 16.68901611 166.47843933 16.86486816 C167.40368912 17.02894165 168.3289389 17.19301514 169.28222656 17.36206055 C170.09330872 17.50242233 170.90439087 17.64278412 171.74005127 17.78739929 C173.71484375 18.3359375 173.71484375 18.3359375 175.71484375 20.3359375 C176.70484375 20.0059375 177.69484375 19.6759375 178.71484375 19.3359375 C178.38484375 20.6559375 178.05484375 21.9759375 177.71484375 23.3359375 C169.09308923 22.71826721 160.68566158 21.1073725 152.21484375 19.4609375 C134.50956516 16.04059959 116.86067674 13.07714277 98.93139648 11.08325195 C96.17807891 10.77630651 93.42595648 10.45998977 90.67382812 10.14257812 C85.02488286 9.49901669 79.37193516 8.90323648 73.71484375 8.3359375 C72.25446686 8.18869736 72.25446686 8.18869736 70.7645874 8.03848267 C54.89086839 6.48418708 39.13492147 6.04912923 23.18994141 6.13012695 C19.42603893 6.14862824 15.66238123 6.15063393 11.8984375 6.15039062 C9.45702915 6.1553 7.01562244 6.16112576 4.57421875 6.16796875 C3.4729364 6.16908157 2.37165405 6.1701944 1.23699951 6.17134094 C-6.30741328 6.21676977 -13.77098676 6.66721764 -21.28515625 7.3359375 C-20.17140625 8.4496875 -20.17140625 8.4496875 -19.03515625 9.5859375 C-16.78515625 11.8359375 -14.53515625 14.0859375 -12.28515625 16.3359375 C-16.59520788 15.81536288 -18.86077851 14.44169033 -22.09765625 11.5859375 C-22.88785156 10.91046875 -23.67804688 10.235 -24.4921875 9.5390625 C-26.66814732 6.8653341 -26.44368342 5.67778685 -26.28515625 2.3359375 C-17.46824176 0.75673963 -8.9508612 0.01878234 0 0 Z " fill="#151851" transform="translate(98.28515625,169.6640625)"/>
<path d="M0 0 C0.969375 0.7425 1.93875 1.485 2.9375 2.25 C3.48277344 2.66765625 4.02804687 3.0853125 4.58984375 3.515625 C7.65975861 6.74711432 7.27981202 11.3600233 7.2109375 15.58203125 C6.08316863 28.509604 -2.76396113 39.6342971 -11 49 C-11.77730469 49.88816406 -12.55460937 50.77632813 -13.35546875 51.69140625 C-16.18562404 54.84626152 -19.07333452 57.93481811 -22 61 C-22.68916504 61.72316406 -23.37833008 62.44632812 -24.08837891 63.19140625 C-34.34897057 73.88585423 -44.67636471 83.73088147 -57 92 C-57.7209082 92.48484863 -58.44181641 92.96969727 -59.18457031 93.46923828 C-117.12462447 132 -117.12462447 132 -133 132 C-132.43997169 126.43527426 -130.3654757 122.0732061 -127.9375 117.125 C-127.56044922 116.34125 -127.18339844 115.5575 -126.79492188 114.75 C-125.87006766 112.83004947 -124.93596022 110.914561 -124 109 C-123.01 109.33 -122.02 109.66 -121 110 C-122.98 114.29 -124.96 118.58 -127 123 C-122.37204619 121.45734873 -118.24370761 119.76063173 -113.9375 117.5625 C-113.25413574 117.21614502 -112.57077148 116.86979004 -111.86669922 116.51293945 C-109.57508135 115.34721229 -107.28764139 114.17350907 -105 113 C-104.17419434 112.58008789 -103.34838867 112.16017578 -102.49755859 111.72753906 C-75.62038079 98.04220719 -51.04339021 82.51262726 -29.75 60.9375 C-28.79988548 59.98592226 -27.84936538 59.03474931 -26.8984375 58.08398438 C-22.25529987 53.41158327 -17.72600615 48.69162169 -13.44628906 43.68286133 C-12.00125851 42.00146436 -10.50723512 40.37557827 -9 38.75 C-2.58219073 31.1590428 3 22.20715452 3 12 C2.29685193 9.09463122 1.25185741 6.74445664 0 4 C0 2.68 0 1.36 0 0 Z " fill="#0D0E47" transform="translate(284,224)"/>
<path d="M0 0 C3.81165853 1.42937195 7.35364647 3.1828958 10.9375 5.09765625 C13.26738864 6.11698253 15.5066768 6.5335288 18 7 C16.16070408 33.94479811 16.16070408 33.94479811 14.42578125 46.43359375 C13.97240077 50.23117518 13.78943604 53.99223003 13.625 57.8125 C12.91004963 68.85963644 8.6098366 77.14383176 3.0859375 86.51928711 C-5.73064022 101.54197856 -0.27329497 121.90976509 3 138 C3.13889648 138.70141113 3.27779297 139.40282227 3.42089844 140.12548828 C5.57732784 150.50433361 10.55329749 159.41418877 15.66210938 168.58300781 C16.95262843 170.91441998 18.20740733 173.26159375 19.453125 175.6171875 C23.65676906 183.49085462 28.17698805 191.0074995 33.3125 198.3125 C33.80411621 199.01197754 34.29573242 199.71145508 34.80224609 200.43212891 C37.59877091 204.31455353 40.51603933 207.71911172 44 211 C39.09166062 210.85126244 36.99277152 208.30943236 33.77709961 204.9909668 C31.11152133 202.0045963 28.94038957 198.82084442 26.8125 195.4375 C26.35617187 194.72368164 25.89984375 194.00986328 25.4296875 193.27441406 C19.91106914 184.49173485 15.06148656 175.33065667 10.1875 166.18041992 C9.2669917 164.49023496 8.28584507 162.83300592 7.28125 161.19140625 C5.8558906 158.75352021 4.925969 156.35351907 4 153.6875 C2.88040259 150.49198239 1.73561022 147.3168134 0.51171875 144.16015625 C-4.07507338 131.90513675 -5.40931593 119.46927127 -5.5625 106.4375 C-5.58916748 105.2609082 -5.61583496 104.08431641 -5.64331055 102.87207031 C-5.61045029 95.02793686 -4.1231655 89.65415597 0 83 C0.57105469 82.01386719 1.14210938 81.02773438 1.73046875 80.01171875 C2.21128906 79.24472656 2.69210937 78.47773438 3.1875 77.6875 C7.03623846 71.54373544 8.38165214 66.35409211 9.03515625 59.21875 C9.11873886 58.3688147 9.20232147 57.51887939 9.28843689 56.64318848 C9.55343196 53.92941531 9.80796001 51.21477156 10.0625 48.5 C10.23697619 46.70566545 10.41210027 44.91139378 10.58789062 43.1171875 C11.40988218 34.65407228 12.18371514 26.19370662 12.75170898 17.70898438 C13.02084076 14.77261646 13.48273017 11.90205751 14 9 C13.0925 8.896875 12.185 8.79375 11.25 8.6875 C7.90259142 7.97939434 6.605608 7.0844864 4 5 C1.85266073 4.29485154 1.85266073 4.29485154 0 4 C0 2.68 0 1.36 0 0 Z " fill="#B5B6C4" transform="translate(286,223)"/>
<path d="M0 0 C-0.57332346 3.64181523 -1.93129028 5.28427305 -4.5625 7.8125 C-5.65884766 8.87017578 -5.65884766 8.87017578 -6.77734375 9.94921875 C-8.69494443 11.71853396 -10.64043565 13.43190515 -12.625 15.125 C-37.78190231 36.98344349 -54.57578165 64.78172121 -70 94 C-70.89543903 95.68119965 -71.79126278 97.36219447 -72.6875 99.04296875 C-77.95168144 108.94968704 -83.03306504 118.941263 -88 129 C-88.66 129 -89.32 129 -90 129 C-87.70397327 120.96390644 -84.00600769 113.78406006 -80.20947266 106.38378906 C-78.92259761 103.84744511 -77.66756116 101.29709551 -76.41796875 98.7421875 C-63.84900064 73.10622269 -49.6233149 48.67309122 -30.2890625 27.51171875 C-28.74739771 25.8200968 -27.22154556 24.11394349 -25.7109375 22.39453125 C-21.71648098 17.85787187 -17.68141024 13.63104596 -13.0546875 9.73828125 C-9.91673194 7.08354698 -6.91025299 4.28345527 -3.8828125 1.50390625 C-2 0 -2 0 0 0 Z " fill="#BABAC9" transform="translate(237,228)"/>
<path d="M0 0 C0.66 0 1.32 0 2 0 C3 1.66666667 4 3.33333333 5 5 C12.21311442 12.09770459 21.27252272 17.01867451 30 22 C31.08474609 22.62358398 31.08474609 22.62358398 32.19140625 23.25976562 C37.41805766 26.25486413 42.68791167 29.15938225 48 32 C48.63373535 32.34337402 49.2674707 32.68674805 49.92041016 33.04052734 C60.78247045 38.84354586 71.99090679 41.5952002 84 44 C85.19882813 44.2475 86.39765625 44.495 87.6328125 44.75 C99.9619511 46.97480697 112.80524176 46.94991992 125 44 C125 44.99 125 45.98 125 47 C111.56938255 52.86063307 96.24057841 50.10550413 82.29492188 47.43554688 C80.8249714 47.15656904 79.35237984 46.89097103 77.87695312 46.64257812 C64.14389262 44.32536963 52.26953485 38.41012024 40 32 C39.30745117 31.6385791 38.61490234 31.2771582 37.90136719 30.90478516 C7.0233523 14.53502846 7.0233523 14.53502846 0 4 C0 2.68 0 1.36 0 0 Z " fill="#BCBDC9" transform="translate(70,174)"/>
<path d="M0 0 C0.5878125 1.7015625 0.5878125 1.7015625 1.1875 3.4375 C2.71665795 7.56916715 4.74876312 11.24793854 7.01171875 15.01953125 C8 17 8 17 8 20 C6.75 21.75 6.75 21.75 5 23 C2.70335068 22.77774361 1.19085323 22.10841123 -0.80859375 20.97265625 C-5.77690231 18.76747117 -11.67233543 19.340982 -16.80078125 20.79296875 C-20.21321062 22.11244144 -23.20100549 23.37657598 -26.09765625 25.63671875 C-28 27 -28 27 -31 27 C-31 27.66 -31 28.32 -31 29 C-32.96875 30.5078125 -32.96875 30.5078125 -35.5 32.125 C-36.3353125 32.66382813 -37.170625 33.20265625 -38.03125 33.7578125 C-38.6809375 34.16773438 -39.330625 34.57765625 -40 35 C-40.66 34.67 -41.32 34.34 -42 34 C-41.34 33.34 -40.68 32.68 -40 32 C-39.58621094 30.81083984 -39.58621094 30.81083984 -39.1640625 29.59765625 C-36.41552938 23.4641847 -28.01208576 19.56791191 -22.06640625 16.78125 C-14.49549203 13.91890058 -7.90706864 13.50654433 -0.125 15.875 C2 17 2 17 3 20 C3.66 20 4.32 20 5 20 C4.65066406 19.28714844 4.30132812 18.57429688 3.94140625 17.83984375 C1.40396239 12.49899166 -0.605244 7.92133999 -1 2 C-7.435 2.495 -7.435 2.495 -14 3 C-14 2.34 -14 1.68 -14 1 C-9.27685687 0.22887459 -4.78478822 -0.09764874 0 0 Z " fill="#333A73" transform="translate(276,199)"/>
<path d="M0 0 C0.39832031 1.12148437 0.39832031 1.12148437 0.8046875 2.265625 C1.15789062 3.25046875 1.51109375 4.2353125 1.875 5.25 C2.22304688 6.22453125 2.57109375 7.1990625 2.9296875 8.203125 C3.91509571 10.93875898 3.91509571 10.93875898 5.1328125 13.171875 C6 15 6 15 6 18 C4 18 4 18 1.5 16.0625 C-1.65267253 12.20047615 -2.2930758 8.84295833 -3 4 C-14.24964729 4.6774748 -25.37082697 5.92961253 -36.55078125 7.31640625 C-41.21715342 7.87004363 -45.87016628 8.16989395 -50.5625 8.4375 C-55.97139651 8.77487584 -60.82494302 9.41579888 -66 11 C-66 10.01 -66 9.02 -66 8 C-60.1130324 5.05499002 -54.71921125 4.23797237 -48.203125 3.61328125 C-47.17370789 3.50654587 -46.14429077 3.39981049 -45.0836792 3.2898407 C-42.91244665 3.06704348 -40.74064995 2.84968461 -38.56835938 2.63745117 C-35.27329749 2.31478141 -31.98045637 1.97428597 -28.6875 1.63085938 C-26.56781569 1.4156068 -24.44802682 1.20138099 -22.328125 0.98828125 C-20.87131317 0.83834465 -20.87131317 0.83834465 -19.3850708 0.68537903 C-12.90471116 0.06040417 -6.50878174 -0.11262117 0 0 Z " fill="#C1C3D5" transform="translate(275,201)"/>
<path d="M0 0 C0.99 0 1.98 0 3 0 C4.53822185 7.11427604 4.57973549 14.39831791 3.0625 21.5 C2.28433616 26.94714687 5.43864183 30.48629681 8.53125 34.71484375 C9.0159375 35.46894531 9.500625 36.22304687 10 37 C9.67 37.66 9.34 38.32 9 39 C7.82767315 37.3790787 6.6622923 35.75313167 5.5 34.125 C4.8503125 33.22007812 4.200625 32.31515625 3.53125 31.3828125 C2 29 2 29 2 27 C1.34 27 0.68 27 0 27 C0.3609375 28.04800781 0.721875 29.09601563 1.09375 30.17578125 C1.56273818 31.55460651 2.0314751 32.93351725 2.5 34.3125 C2.73847656 35.00279297 2.97695313 35.69308594 3.22265625 36.40429688 C4.23208263 39.38931489 5 41.82658914 5 45 C1 45 1 45 -0.48828125 43.6484375 C-1.23658203 42.83246094 -1.23658203 42.83246094 -2 42 C-3.38043069 41.18177148 -4.77716636 40.39053629 -6.1875 39.625 C-8.32421875 38.33984375 -8.32421875 38.33984375 -10 37 C-10.5 34.1875 -10.5 34.1875 -10 32 C-9.814375 32.5775 -9.62875 33.155 -9.4375 33.75 C-7.29448878 37.10427843 -4.51177437 38.17907996 -1 40 C-1.20496094 39.40832031 -1.40992188 38.81664062 -1.62109375 38.20703125 C-1.89050781 37.41683594 -2.15992188 36.62664062 -2.4375 35.8125 C-2.70433594 35.03519531 -2.97117187 34.25789063 -3.24609375 33.45703125 C-4.71755032 28.66145518 -5.07521384 25.0616619 -4.2578125 20.078125 C-4.07863281 18.97082031 -3.89945312 17.86351562 -3.71484375 16.72265625 C-3.52019531 15.57667969 -3.32554687 14.43070313 -3.125 13.25 C-2.93808594 12.08855469 -2.75117188 10.92710937 -2.55859375 9.73046875 C-1.14229911 1.14229911 -1.14229911 1.14229911 0 0 Z " fill="#E3E4EB" transform="translate(277,131)"/>
<path d="M0 0 C0.99 0.33 1.98 0.66 3 1 C2.59625153 1.39486603 2.19250305 1.78973206 1.77651978 2.19656372 C-2.48732103 6.37075918 -6.73609472 10.559883 -10.97705078 14.75732422 C-12.55409094 16.31445469 -14.13472697 17.86795316 -15.71923828 19.41748047 C-25.19754095 28.69194867 -33.81170175 37.83311903 -41 49 C-41.5986084 49.91217285 -42.1972168 50.8243457 -42.81396484 51.76416016 C-44.41150165 54.239423 -45.96459795 56.73580404 -47.5 59.25 C-48.04333984 60.13333008 -48.58667969 61.01666016 -49.14648438 61.92675781 C-53.94875687 69.79449031 -58.46290396 77.80818311 -62.859375 85.90820312 C-64.88257643 89.61856055 -66.94270641 93.30846798 -69 97 C-69.90046133 94.53787745 -70.13110544 93.35896359 -69.21826172 90.85961914 C-68.58041748 89.70901001 -68.58041748 89.70901001 -67.9296875 88.53515625 C-67.45192871 87.66310547 -66.97416992 86.79105469 -66.48193359 85.89257812 C-65.95164551 84.95865234 -65.42135742 84.02472656 -64.875 83.0625 C-64.33311035 82.09119141 -63.7912207 81.11988281 -63.23291016 80.11914062 C-47.57168278 52.3109125 -30.17270788 28.01407249 -7 6 C-6.35095703 5.38237793 -5.70191406 4.76475586 -5.03320312 4.12841797 C-3.171875 2.43359375 -3.171875 2.43359375 0 0 Z " fill="#15153A" transform="translate(233,234)"/>
<path d="M0 0 C6.09238301 5.01725659 9.89267509 12.46112132 11.75 20.07421875 C12.01001255 23.11717815 11.71191658 24.99868082 10.75 27.875 C10.47027344 28.72578125 10.19054687 29.5765625 9.90234375 30.453125 C8.64935284 33.9897054 7.35997415 37.50292362 6 41 C7.32 42.32 8.64 43.64 10 45 C7.08482708 43.92598892 5.22189824 43.22189824 3 41 C1.68 41 0.36 41 -1 41 C-0.505 38.03 -0.505 38.03 0 35 C0.66 35 1.32 35 2 35 C2.53650427 33.29652317 3.05349646 31.58689531 3.5625 29.875 C3.85253906 28.92367187 4.14257812 27.97234375 4.44140625 26.9921875 C5.63312877 20.608555 3.17644895 15.72221845 0.4375 10.125 C0.10814453 9.43664062 -0.22121094 8.74828125 -0.56054688 8.0390625 C-1.36695361 6.3561267 -2.18254494 4.67759707 -3 3 C-2.01 2.01 -1.02 1.02 0 0 Z " fill="#ABAEC2" transform="translate(338,104)"/>
<path d="M0 0 C0 0.33 0 0.66 0 1 C-0.969375 1.2475 -1.93875 1.495 -2.9375 1.75 C-3.948125 2.1625 -4.95875 2.575 -6 3 C-6.75243555 4.92638012 -6.75243555 4.92638012 -7 7 C-7.98020375 8.0194119 -8.97803008 9.02246356 -10 10 C-10 10.66 -10 11.32 -10 12 C-10.9075 12.226875 -11.815 12.45375 -12.75 12.6875 C-17.15604915 14.466866 -18.90302911 16.71993241 -20.9453125 20.96484375 C-22.51581121 24.76375279 -23.35752964 26.99323069 -22 31 C-21.443125 32.175625 -21.443125 32.175625 -20.875 33.375 C-19.79851361 36.60445918 -20.23830526 38.72471261 -21 42 C-24.875 41.125 -24.875 41.125 -26 40 C-27.34267413 39.91368126 -28.68974322 39.89293527 -30.03515625 39.90234375 C-30.84404297 39.90556641 -31.65292969 39.90878906 -32.48632812 39.91210938 C-33.33646484 39.92048828 -34.18660156 39.92886719 -35.0625 39.9375 C-35.91650391 39.94201172 -36.77050781 39.94652344 -37.65039062 39.95117188 C-39.76695663 39.96299627 -41.88348685 39.98093231 -44 40 C-44 39.01 -44 38.02 -44 37 C-38.06 37 -32.12 37 -26 37 C-26.33 36.01 -26.66 35.02 -27 34 C-27.69606998 26.73104068 -27.90265348 20.60439251 -23.43359375 14.578125 C-21.47600925 12.42318184 -19.37032087 10.68417535 -17 9 C-15.97895449 8.02149805 -14.9793879 7.02019573 -14 6 C-8.95737728 0.83438648 -7.26279014 -0.13449611 0 0 Z " fill="#BDBFCF" transform="translate(332,133)"/>
<path d="M0 0 C3.81165853 1.42937195 7.35364647 3.1828958 10.9375 5.09765625 C13.26738864 6.11698253 15.5066768 6.5335288 18 7 C16.8508341 26.15743639 14.73841562 45.01644194 12 64 C11.67 64 11.34 64 11 64 C8.77972243 45.81772691 10.92652338 26.98310787 14 9 C12.58074219 8.79890625 12.58074219 8.79890625 11.1328125 8.59375 C7.81992798 7.96587164 6.57207281 7.05765825 4 5 C1.85266073 4.29485154 1.85266073 4.29485154 0 4 C0 2.68 0 1.36 0 0 Z " fill="#C7C9D8" transform="translate(286,223)"/>
<path d="M0 0 C2.91517292 1.07401108 4.77810176 1.77810176 7 4 C6.34 4 5.68 4 5 4 C5.60328125 4.73605469 6.2065625 5.47210938 6.828125 6.23046875 C7.62734375 7.20628906 8.4265625 8.18210938 9.25 9.1875 C10.03890625 10.15042969 10.8278125 11.11335937 11.640625 12.10546875 C14 15 14 15 15.765625 17.6015625 C18.87228691 20.93633595 22.36542883 22.38696094 26.5 24.1875 C28.01047216 24.86836648 29.52089058 25.5493522 31.03125 26.23046875 C32.02995117 26.66975708 32.02995117 26.66975708 33.04882812 27.11791992 C35.06063287 28.02741073 37.03149765 29.00066136 39 30 C38.6875 31.9375 38.6875 31.9375 38 34 C37.01 34.33 36.02 34.66 35 35 C34.67 34.01 34.34 33.02 34 32 C32.05486966 31.16517109 30.10270706 30.34321137 28.11962891 29.60302734 C17.03619969 25.43088726 10.7189669 19.59128301 4 10 C3.23429688 8.95070312 2.46859375 7.90140625 1.6796875 6.8203125 C0 4 0 4 0 0 Z " fill="#CFD0DD" transform="translate(238,154)"/>
<path d="M0 0 C1.88330078 0.26049805 1.88330078 0.26049805 4 1 C5.05810547 2.66723633 5.05810547 2.66723633 5.8671875 4.83203125 C6.18840576 5.62536865 6.50962402 6.41870605 6.84057617 7.23608398 C7.18193604 8.08630127 7.5232959 8.93651855 7.875 9.8125 C13.26942128 22.25031773 21.93657113 28.76428249 33 36 C32.505 36.99 32.505 36.99 32 38 C27.00079956 37.58961787 24.1041828 34.95278889 20.5 31.75 C19.94441406 31.27175781 19.38882812 30.79351562 18.81640625 30.30078125 C17.190088 28.88875435 15.59186653 27.45067093 14 26 C13.11957031 25.20464844 12.23914063 24.40929687 11.33203125 23.58984375 C8.58761668 20.54202657 6.93021453 17.49412871 5.1875 13.8125 C4.72053711 12.86987305 4.72053711 12.86987305 4.24414062 11.90820312 C2 7.29661745 2 7.29661745 2 5 C1.01 5.33 0.02 5.66 -1 6 C-0.67 4.02 -0.34 2.04 0 0 Z " fill="#C4C6D6" transform="translate(318,229)"/>
<path d="M0 0 C4.69957599 0.34178735 8.07759812 0.9129405 12.25 3.125 C17.97722165 5.81328771 22.89004443 4.8699152 29 4 C30.51511428 3.81986975 32.03078339 3.64436654 33.546875 3.47265625 C37.70054776 3.00205579 41.85054295 2.50639109 46 2 C46 2.99 46 3.98 46 5 C18.05240175 11.52110626 18.05240175 11.52110626 6 5 C6 5.66 6 6.32 6 7 C4 7 4 7 1.875 5.1875 C0 3 0 3 0 0 Z " fill="#B6B8CC" transform="translate(328,223)"/>
<path d="M0 0 C0 0.99 0 1.98 0 3 C-0.86625 3.37125 -0.86625 3.37125 -1.75 3.75 C-4.06909639 4.89531382 -4.06909639 4.89531382 -5.75 6.8125 C-10.88556704 11.8054124 -15.71587888 14.49648311 -22.921875 14.859375 C-24.98720249 14.93183987 -24.98720249 14.93183987 -26.87304688 15.50268555 C-29.03714415 16.00868488 -30.89157956 16.11445773 -33.109375 16.09765625 C-33.86347656 16.09443359 -34.61757812 16.09121094 -35.39453125 16.08789062 C-36.17183594 16.07951172 -36.94914063 16.07113281 -37.75 16.0625 C-38.54277344 16.05798828 -39.33554688 16.05347656 -40.15234375 16.04882812 C-42.10159508 16.03708565 -44.05080738 16.01915146 -46 16 C-46 15.34 -46 14.68 -46 14 C-44.88882813 13.97421875 -43.77765625 13.9484375 -42.6328125 13.921875 C-28.87559321 13.46190718 -19.73310513 9.65306382 -8.00390625 2.70703125 C-5.25164069 1.14299998 -3.19385372 0 0 0 Z " fill="#0F0F51" transform="translate(213,205)"/>
<path d="M0 0 C0.96495067 1.80124125 1.92926556 3.60285216 2.8828125 5.41015625 C3.97187842 7.29169806 3.97187842 7.29169806 6.75 7.9375 C7.86375 7.9684375 7.86375 7.9684375 9 8 C8.01 8.33 7.02 8.66 6 9 C6.433125 9.474375 6.86625 9.94875 7.3125 10.4375 C8.94953868 12.92337355 9.30153016 14.24606214 9.9375 17.0625 C11.79180387 23.26411626 16.70703488 26.69061336 21.48046875 30.71484375 C22.31191406 31.46894531 23.14335937 32.22304688 24 33 C24 33.66 24 34.32 24 35 C10.44173276 28.72771749 5.51989831 18.63808765 -0.02734375 5.58203125 C-0.98240206 3.64890116 -0.98240206 3.64890116 -4 3 C-4.33 4.65 -4.66 6.3 -5 8 C-5.97608217 5.07175348 -6.08226668 3.04386724 -6 0 C-3 -1 -3 -1 0 0 Z " fill="#585D8A" transform="translate(322,226)"/>
<path d="M0 0 C0.99 0 1.98 0 3 0 C3.15855469 0.8971875 3.31710937 1.794375 3.48046875 2.71875 C4.81649224 9.8638922 6.38823892 16.85348648 8.5 23.8125 C8.70133545 24.49957031 8.9026709 25.18664062 9.11010742 25.89453125 C10.25928836 29.5527342 10.70533748 30.80355832 14 33 C14 34.32 14 35.64 14 37 C12.948125 36.566875 12.948125 36.566875 11.875 36.125 C8.94547497 34.97866412 5.99078347 33.97374346 3 33 C4.485 32.505 4.485 32.505 6 32 C5.81824219 31.2793335 5.63648438 30.55866699 5.44921875 29.81616211 C4.62433061 26.52533433 3.81207199 23.23151274 3 19.9375 C2.71382813 18.80376953 2.42765625 17.67003906 2.1328125 16.50195312 C0.75582744 10.87926412 -0.403762 5.79566704 0 0 Z " fill="#D4D5E0" transform="translate(256,140)"/>
<path d="M0 0 C1.75763672 0.45246094 1.75763672 0.45246094 3.55078125 0.9140625 C4.73027344 1.21054688 5.90976562 1.50703125 7.125 1.8125 C8.02863281 2.05226562 8.93226563 2.29203125 9.86328125 2.5390625 C10.19328125 3.8590625 10.52328125 5.1790625 10.86328125 6.5390625 C6.34609744 7.90790608 3.27553862 7.00981496 -1.13671875 5.5390625 C-1.05292969 6.33570313 -0.96914063 7.13234375 -0.8828125 7.953125 C-0.78097656 9.01273438 -0.67914063 10.07234375 -0.57421875 11.1640625 C-0.46980469 12.20820313 -0.36539062 13.25234375 -0.2578125 14.328125 C-0.13589352 17.56094428 -0.49564561 20.37643501 -1.13671875 23.5390625 C0.87519668 24.86722922 2.89609265 26.17605009 4.92578125 27.4765625 C5.48716797 27.84974609 6.04855469 28.22292969 6.62695312 28.60742188 C10.83103033 31.27400799 14.01227583 32.14974614 18.86328125 32.5390625 C18.86328125 32.8690625 18.86328125 33.1990625 18.86328125 33.5390625 C11.14951403 33.98277477 5.96094277 32.41844117 -0.30078125 27.87109375 C-3.05534475 25.2712525 -3.65495014 23.22926226 -4.03515625 19.48828125 C-4.16055664 14.4704743 -3.78933691 9.51258661 -3.13671875 4.5390625 C-4.12671875 4.2090625 -5.11671875 3.8790625 -6.13671875 3.5390625 C-6.13671875 2.8790625 -6.13671875 2.2190625 -6.13671875 1.5390625 C-3.13671875 -0.4609375 -3.13671875 -0.4609375 0 0 Z " fill="#8F91AF" transform="translate(335.13671875,192.4609375)"/>
<path d="M0 0 C0.26554687 0.74765625 0.53109375 1.4953125 0.8046875 2.265625 C1.15789062 3.25046875 1.51109375 4.2353125 1.875 5.25 C2.22304688 6.22453125 2.57109375 7.1990625 2.9296875 8.203125 C3.91509571 10.93875898 3.91509571 10.93875898 5.1328125 13.171875 C6 15 6 15 6 18 C4 18 4 18 1.5 16.0625 C-1.65267253 12.20047615 -2.2930758 8.84295833 -3 4 C-3.70382812 4.08378906 -4.40765625 4.16757813 -5.1328125 4.25390625 C-13.213621 5.08730556 -20.92320448 4.77661495 -29 4 C-29 3.67 -29 3.34 -29 3 C-19.24288977 0.62415519 -10.03925838 -0.16888472 0 0 Z " fill="#C4C6D6" transform="translate(275,201)"/>
<path d="M0 0 C3.75983661 0.56229699 5.41683574 2.09311418 8 4.8125 C8.66 5.49957031 9.32 6.18664062 10 6.89453125 C10.66 7.58933594 11.32 8.28414062 12 9 C12.7425 9.70511719 13.485 10.41023437 14.25 11.13671875 C16 13 16 13 16 15 C17.051875 14.87625 17.051875 14.87625 18.125 14.75 C21.92949327 15.0808255 23.98077266 16.75313314 27 19 C27.33 18.34 27.66 17.68 28 17 C28.66 17.66 29.32 18.32 30 19 C29.625 21.625 29.625 21.625 29 24 C15.85983312 20.44860355 7.83776286 12.66920598 0 2 C0 1.34 0 0.68 0 0 Z " fill="#71759B" transform="translate(243,158)"/>
<path d="M0 0 C3.6732162 0.63331314 3.6732162 0.63331314 5.28759766 2.44482422 C7.58130652 4.52793306 9.57640838 4.88013362 12.5859375 5.5703125 C14.22949219 5.95509766 14.22949219 5.95509766 15.90625 6.34765625 C17.0509375 6.60417969 18.195625 6.86070312 19.375 7.125 C21.08042969 7.52138672 21.08042969 7.52138672 22.8203125 7.92578125 C27.5352601 9.01597453 32.25087159 10.06886226 37 11 C36.67 11.99 36.34 12.98 36 14 C29.58906326 13.5929564 23.49686121 12.56403923 17.25 11.125 C16.52949463 10.96354492 15.80898926 10.80208984 15.06665039 10.63574219 C9.84991975 9.39438085 4.83786597 8.02165257 1.125 3.9375 C0 2 0 2 0 0 Z " fill="#C7C9D8" transform="translate(328,235)"/>
<path d="M0 0 C0.99 0.33 1.98 0.66 3 1 C-7.56 11.56 -18.12 22.12 -29 33 C-29.99 32.67 -30.98 32.34 -32 32 C-8.92507579 6.59679515 -8.92507579 6.59679515 0 0 Z " fill="#191A58" transform="translate(233,234)"/>
<path d="M0 0 C0.66 0 1.32 0 2 0 C2.95921722 1.74951568 3.91733817 3.49963244 4.875 5.25 C5.67550781 6.71179688 5.67550781 6.71179688 6.4921875 8.203125 C7.23855469 9.58757812 7.23855469 9.58757812 8 11 C8.37640625 11.69351563 8.7528125 12.38703125 9.140625 13.1015625 C11.14196631 17.5227074 11.57192891 21.99678234 10.23828125 26.66796875 C8.69488714 30.55227287 6.88526779 34.27211754 5 38 C4.34 38 3.68 38 3 38 C3.5800617 33.47551871 4.81146668 29.55995594 6.4765625 25.34375 C7.80612078 19.39050397 4.97527322 14.42007449 2.375 9.25 C1.16822308 6.85026423 0.05909083 4.47318417 -1 2 C-0.67 1.34 -0.34 0.68 0 0 Z " fill="#DEDFE7" transform="translate(336,105)"/>
<path d="M0 0 C3.28377131 1.64188565 4.21679659 5.17992264 5.75 8.375 C6.47524181 9.85221163 7.20180837 11.32877359 7.9296875 12.8046875 C8.46287598 13.8889502 8.46287598 13.8889502 9.00683594 14.99511719 C12.63585896 22.32096208 16.7469301 29.31329759 21.0625 36.25 C21.47419434 36.91193359 21.88588867 37.57386719 22.31005859 38.25585938 C25.05664379 42.62149578 27.96791667 46.82750744 31 51 C30.01 51 29.02 51 28 51 C17.86777989 40.36594824 10.95917253 25.11535334 4.375 12.125 C4.04435547 11.47764893 3.71371094 10.83029785 3.37304688 10.16333008 C1.70903987 6.80102043 0.52369326 3.72246832 0 0 Z " fill="#111234" transform="translate(294,375)"/>
<path d="M0 0 C0.33 0 0.66 0 1 0 C1.33 1.98 1.66 3.96 2 6 C2.33 6 2.66 6 3 6 C3.89426848 17.84905736 -1.91725139 27.20950855 -8 37 C-8.99 36.67 -9.98 36.34 -11 36 C-9.65159595 32.70390121 -8.31756971 29.55045416 -6.53515625 26.4609375 C-1.64948774 17.78857726 -0.67013077 9.75155805 0 0 Z " fill="#BABBD0" transform="translate(296,274)"/>
<path d="M0 0 C0 0.33 0 0.66 0 1 C-0.969375 1.2475 -1.93875 1.495 -2.9375 1.75 C-3.948125 2.1625 -4.95875 2.575 -6 3 C-6.75243555 4.92638012 -6.75243555 4.92638012 -7 7 C-7.98020375 8.0194119 -8.97803008 9.02246356 -10 10 C-10 10.66 -10 11.32 -10 12 C-10.90492188 12.22042969 -10.90492188 12.22042969 -11.828125 12.4453125 C-17.54242202 13.99057608 -17.54242202 13.99057608 -21.4375 18.1875 C-21.953125 19.115625 -22.46875 20.04375 -23 21 C-23.66 21 -24.32 21 -25 21 C-24.925329 17.86381793 -24.66646905 15.71444111 -22.48046875 13.37109375 C-21.27014889 12.35442507 -20.04005 11.36071946 -18.7890625 10.39453125 C-17.04144469 9.03230514 -15.53567341 7.59425495 -14 6 C-8.95737728 0.83438648 -7.26279014 -0.13449611 0 0 Z " fill="#CCCDDA" transform="translate(332,133)"/>
<path d="M0 0 C1.93256137 0.85924201 3.82323271 1.81370184 5.6875 2.8125 C10.11762898 5.11019626 14.14380527 6.89631938 19 8 C18.36563285 17.00261467 17.70246743 26.0024385 17 35 C14.912299 31.8684485 14.76253504 31.4086295 14.98828125 27.91015625 C15.05885742 26.73356445 15.05885742 26.73356445 15.13085938 25.53320312 C15.19080078 24.71787109 15.25074219 23.90253906 15.3125 23.0625 C15.38500977 21.84530273 15.38500977 21.84530273 15.45898438 20.60351562 C15.69634027 16.94102409 16.02705079 13.54984188 17 10 C15.88625 9.95875 14.7725 9.9175 13.625 9.875 C7.9528029 9.21426019 3.65435108 6.11879673 -1 3 C-1.33 3.99 -1.66 4.98 -2 6 C-2.66 5.67 -3.32 5.34 -4 5 C-4 4.34 -4 3.68 -4 3 C-3.34 3 -2.68 3 -2 3 C-2 2.34 -2 1.68 -2 1 C-1.34 0.67 -0.68 0.34 0 0 Z " fill="#5A5E8B" transform="translate(287,220)"/>
<path d="M0 0 C3.02145585 1.5745615 5.85111323 3.17157549 8.6875 5.0625 C8.6875 5.7225 8.6875 6.3825 8.6875 7.0625 C4.05943299 6.52770115 0.89518832 5.25166463 -3.125 2.9375 C-7.90297273 0.46858472 -11.05550448 -0.62187637 -16.3515625 0.4296875 C-19.1634495 1.3371092 -21.6991088 2.69640915 -24.3125 4.0625 C-27.1875 4.25 -27.1875 4.25 -29.3125 4.0625 C-21.01713782 -5.56351755 -10.22756516 -4.9729239 0 0 Z " fill="#CCCEDB" transform="translate(390.3125,161.9375)"/>
<path d="M0 0 C0.70382813 0.4125 1.40765625 0.825 2.1328125 1.25 C4.83220305 2.82875583 7.53450658 4.40239952 10.23828125 5.97363281 C11.92189387 6.95449582 13.60167028 7.94193467 15.28125 8.9296875 C24.64886735 14.37953965 34.26899812 19.233795 44 24 C44 24.66 44 25.32 44 26 C37.60536612 24.07848773 31.81329789 21.59655102 25.9375 18.4375 C25.12692139 18.00493896 24.31634277 17.57237793 23.48120117 17.12670898 C17.84048356 14.078995 12.28582355 10.9014699 6.8125 7.5625 C6.12341553 7.14991943 5.43433105 6.73733887 4.72436523 6.31225586 C2.83203125 5.12890625 2.83203125 5.12890625 0 3 C0 2.01 0 1.02 0 0 Z " fill="#181940" transform="translate(87,186)"/>
<path d="M0 0 C0.33 0 0.66 0 1 0 C1 4.95 1 9.9 1 15 C1.33 12.36 1.66 9.72 2 7 C2.33 7 2.66 7 3 7 C3.29448087 15.30988216 2.1557835 23.35663105 1 31.5625 C0.80673925 32.96672096 0.61402658 34.37101746 0.421875 35.77539062 C-0.04576984 39.18448761 -0.52081583 42.59250349 -1 46 C-1.33 46 -1.66 46 -2 46 C-3.83346867 30.98537818 -3.19883144 14.78997039 0 0 Z " fill="#BEC0D3" transform="translate(299,241)"/>
<path d="M0 0 C0.99 0 1.98 0 3 0 C3.02768522 1.64573233 3.04669585 3.29161069 3.0625 4.9375 C3.0728125 5.94683594 3.083125 6.95617187 3.09375 7.99609375 C3.01069575 10.65729035 2.62570741 12.9139393 2.0625 15.5 C1.28433616 20.94714687 4.43864183 24.48629681 7.53125 28.71484375 C8.25828125 29.84599609 8.25828125 29.84599609 9 31 C8.67 31.66 8.34 32.32 8 33 C6.82767315 31.3790787 5.6622923 29.75313167 4.5 28.125 C3.8503125 27.22007812 3.200625 26.31515625 2.53125 25.3828125 C1 23 1 23 1 21 C0.34 21 -0.32 21 -1 21 C-1.33 21.99 -1.66 22.98 -2 24 C-2.26305952 15.7574683 -1.60614551 8.08808989 0 0 Z " fill="#A0A2BA" transform="translate(278,137)"/>
<path d="M0 0 C2.93917298 1.36087176 5.34215866 2.93064163 7.85546875 4.96875 C8.55994141 5.53980469 9.26441406 6.11085938 9.99023438 6.69921875 C10.71533203 7.29347656 11.44042969 7.88773437 12.1875 8.5 C12.92419922 9.09425781 13.66089844 9.68851563 14.41992188 10.30078125 C19.87259195 14.74518391 19.87259195 14.74518391 21 17 C18.36 17 15.72 17 13 17 C13 16.01 13 15.02 13 14 C11.68 14 10.36 14 9 14 C9 13.01 9 12.02 9 11 C7.68 11 6.36 11 5 11 C4.67 9.02 4.34 7.04 4 5 C3.34 5 2.68 5 2 5 C1.34 3.35 0.68 1.7 0 0 Z " fill="#344080" transform="translate(363,90)"/>
<path d="M0 0 C0.33 0 0.66 0 1 0 C1.02578125 1.24910156 1.0515625 2.49820312 1.078125 3.78515625 C1.45752884 16.64120532 3.14694136 28.90115008 5.55859375 41.52197266 C6.17868496 45.00312627 6.60460331 48.48673565 7 52 C4.20138028 49.20138028 3.84030143 45.99668381 3 42.25 C2.82629883 41.48357178 2.65259766 40.71714355 2.47363281 39.92749023 C-0.40052377 26.93312095 -1.63026107 14.29411144 -1 1 C-0.67 0.67 -0.34 0.34 0 0 Z " fill="#11114B" transform="translate(285,318)"/>
<path d="M0 0 C0 0.99 0 1.98 0 3 C-6.74856761 4.70271552 -13.1169488 5.39299829 -20.0625 5.625 C-21.50399414 5.68300781 -21.50399414 5.68300781 -22.97460938 5.7421875 C-25.31622814 5.83538626 -27.65786037 5.92119185 -30 6 C-30 5.34 -30 4.68 -30 4 C-25.75076277 3.32840975 -21.50049499 2.66357939 -17.25 2 C-16.0434375 1.80921875 -14.836875 1.6184375 -13.59375 1.421875 C-12.43359375 1.24140625 -11.2734375 1.0609375 -10.078125 0.875 C-9.00981445 0.70742187 -7.94150391 0.53984375 -6.84082031 0.3671875 C-4 0 -4 0 0 0 Z " fill="#D2D4E0" transform="translate(374,225)"/>
<path d="M0 0 C0.66 0 1.32 0 2 0 C3.65 4.29 5.3 8.58 7 13 C5.02 13.99 5.02 13.99 3 15 C2.505 14.443125 2.01 13.88625 1.5 13.3125 C-0.73411758 11.24594124 -2.62722232 10.03199955 -5.25 8.5625 C-7.359375 7.3046875 -7.359375 7.3046875 -9 6 C-9.5 3.1875 -9.5 3.1875 -9 1 C-8.814375 1.5775 -8.62875 2.155 -8.4375 2.75 C-6.29448878 6.10427843 -3.51177437 7.17907996 0 9 C-0.185625 7.700625 -0.37125 6.40125 -0.5625 5.0625 C-0.87890625 2.84765625 -0.87890625 2.84765625 -1 1 C-0.67 0.67 -0.34 0.34 0 0 Z " fill="#B3B6C9" transform="translate(276,162)"/>
<path d="M0 0 C0.391875 1.134375 0.78375 2.26875 1.1875 3.4375 C2.71665795 7.56916715 4.74876312 11.24793854 7.01171875 15.01953125 C8 17 8 17 8 20 C7.01 20.66 6.02 21.32 5 22 C4.81824219 21.443125 4.63648438 20.88625 4.44921875 20.3125 C3.15359269 16.37911216 1.81851803 12.48327477 0.3125 8.625 C-1 5 -1 5 -1 2 C-7.435 2.495 -7.435 2.495 -14 3 C-14 2.34 -14 1.68 -14 1 C-9.27685687 0.22887459 -4.78478822 -0.09764874 0 0 Z " fill="#5F628E" transform="translate(276,199)"/>
<path d="M0 0 C0 0.33 0 0.66 0 1 C-2.64 1.66 -5.28 2.32 -8 3 C-7.34 3.66 -6.68 4.32 -6 5 C-10.62 6.65 -15.24 8.3 -20 10 C-20 9.34 -20 8.68 -20 8 C-20.99 7.67 -21.98 7.34 -23 7 C-22.67 6.34 -22.34 5.68 -22 5 C-20.34114475 4.62974584 -18.67237008 4.30342579 -17 4 C-15.17750703 3.33944578 -13.36499205 2.65082664 -11.5625 1.9375 C-7.54535852 0.43378623 -4.34431332 -0.46965549 0 0 Z " fill="#8F92AF" transform="translate(381,155)"/>
<path d="M0 0 C0.66 0 1.32 0 2 0 C8.51936219 11.52164009 8.51936219 11.52164009 10 17 C9.34 17 8.68 17 8 17 C7.67 17.66 7.34 18.32 7 19 C5.63301613 16.21443118 4.28365462 13.42068672 2.9375 10.625 C2.35258789 9.43390625 2.35258789 9.43390625 1.75585938 8.21875 C1.39169922 7.45820312 1.02753906 6.69765625 0.65234375 5.9140625 C0.31195068 5.2123291 -0.02844238 4.5105957 -0.37915039 3.78759766 C-0.58403076 3.19769043 -0.78891113 2.6077832 -1 2 C-0.67 1.34 -0.34 0.68 0 0 Z " fill="#D6D7E1" transform="translate(336,105)"/>
<path d="M0 0 C10.68497527 1.90177546 21.34068077 3.96046447 32 6 C32 6.33 32 6.66 32 7 C24.70672432 7.50589196 18.02527569 6.8263446 10.9375 5.1875 C10.19959229 5.02217773 9.46168457 4.85685547 8.70141602 4.68652344 C5.05282478 3.79051144 2.29045218 3.11038058 0 0 Z " fill="#181947" transform="translate(134,212)"/>
<path d="M0 0 C0 0.33 0 0.66 0 1 C2.31 1.33 4.62 1.66 7 2 C7 2.33 7 2.66 7 3 C1.39 3.66 -4.22 4.32 -10 5 C-10.33 4.34 -10.66 3.68 -11 3 C-15.29 3 -19.58 3 -24 3 C-24 2.67 -24 2.34 -24 2 C-21.50072231 1.66029235 -19.00080405 1.32811968 -16.5 1 C-15.80390625 0.90460938 -15.1078125 0.80921875 -14.390625 0.7109375 C-9.55299871 0.0838378 -4.87818804 -0.08789528 0 0 Z " fill="#AFB1C8" transform="translate(251,203)"/>
<path d="M0 0 C-8.87167655 4.67241632 -17.20862891 4.03067064 -27 3 C-27 2.67 -27 2.34 -27 2 C-18.08489362 -0.641513 -9.20604186 -0.17875809 0 0 Z " fill="#CFD1DE" transform="translate(273,202)"/>
<path d="M0 0 C0.33 0.66 0.66 1.32 1 2 C1.66 2 2.32 2 3 2 C3.8655047 4.26708325 4.71759315 6.53775079 5.5625 8.8125 C5.80935547 9.45509766 6.05621094 10.09769531 6.31054688 10.75976562 C8.11328125 15.66015625 8.11328125 15.66015625 7 19 C6.34 18.67 5.68 18.34 5 18 C4.67 18.66 4.34 19.32 4 20 C3.32749476 17.41806023 2.66182099 14.83467929 2 12.25 C1.71382813 11.15558594 1.71382813 11.15558594 1.421875 10.0390625 C0.53484036 6.55428354 0 3.61876278 0 0 Z " fill="#8E91AD" transform="translate(259,143)"/>
<path d="M0 0 C1.40378906 0.14888672 1.40378906 0.14888672 2.8359375 0.30078125 C5.46075547 0.6647266 8.03368939 1.13625756 10.625 1.6875 C10.295 2.6775 9.965 3.6675 9.625 4.6875 C3.4195858 4.20429152 -2.37445246 3.35431876 -8.375 1.6875 C-4.89165506 -0.63472996 -4.01854463 -0.45690302 0 0 Z " fill="#C4C6D7" transform="translate(354.375,244.3125)"/>
<path d="M0 0 C5.30659489 4.70012691 9.67812361 10.33060919 10.3125 17.5625 C10.1578125 18.7690625 10.1578125 18.7690625 10 20 C7.50663012 16.80848655 5.38609541 13.47772816 3.3125 10 C2.68988281 8.96875 2.06726563 7.9375 1.42578125 6.875 C0 4 0 4 0 0 Z " fill="#7E82A3" transform="translate(338,104)"/>
<path d="M0 0 C0.33 0 0.66 0 1 0 C1.33 1.98 1.66 3.96 2 6 C2.33 6 2.66 6 3 6 C3.19392201 11.52677733 2.7479503 15.75614911 1 21 C-0.32 21.33 -1.64 21.66 -3 22 C-2.01 14.74 -1.02 7.48 0 0 Z " fill="#B0B3CA" transform="translate(296,274)"/>
<path d="M0 0 C4.08366335 1.66518311 7.06037785 4.54692877 10.25 7.5 C10.80429687 7.99886719 11.35859375 8.49773437 11.9296875 9.01171875 C13.3285008 10.2968354 14.66944254 11.64433768 16 13 C16 13.66 16 14.32 16 15 C12.33591122 13.38118643 9.42666956 11.1279774 6.3125 8.625 C5.33925781 7.85414063 4.36601562 7.08328125 3.36328125 6.2890625 C1.0610313 4.05911461 0.30651649 3.12219127 0 0 Z " fill="#43487D" transform="translate(330,246)"/>
<path d="M0 0 C1.98 0 3.96 0 6 0 C5.36563285 9.00261467 4.70246743 18.0024385 4 27 C1.74456595 23.61684893 1.81760967 22.85587551 2.12890625 18.96484375 C2.19400391 17.99095703 2.25910156 17.01707031 2.32617188 16.01367188 C2.48404546 13.95870583 2.64551886 11.90401325 2.81054688 9.84960938 C2.87435547 8.87701172 2.93816406 7.90441406 3.00390625 6.90234375 C3.07424072 6.01023193 3.1445752 5.11812012 3.21704102 4.19897461 C3.14541748 3.47331299 3.07379395 2.74765137 3 2 C2.01 1.34 1.02 0.68 0 0 Z " fill="#535887" transform="translate(300,228)"/>
<path d="M0 0 C6.75052102 1.77910928 13.40620337 3.70438191 20 6 C20 6.33 20 6.66 20 7 C13.1781317 7.38614349 7.50422293 6.00865708 1 4 C0.67 2.68 0.34 1.36 0 0 Z " fill="#505586" transform="translate(338,237)"/>
<path d="M0 0 C0.99 0 1.98 0 3 0 C3 1.98 3 3.96 3 6 C2.34 6 1.68 6 1 6 C1 7.98 1 9.96 1 12 C0.01 12.495 0.01 12.495 -1 13 C-2.13350534 15.01669827 -2.13350534 15.01669827 -3 17 C-2.88506243 15.10353002 -2.75760358 13.20781668 -2.625 11.3125 C-2.55539062 10.25675781 -2.48578125 9.20101562 -2.4140625 8.11328125 C-2.01239911 5.09322731 -1.25930981 2.75921946 0 0 Z " fill="#D5D6E1" transform="translate(277,131)"/>
<path d="M0 0 C1.98 0.99 1.98 0.99 4 2 C4.78375 2.28875 5.5675 2.5775 6.375 2.875 C10.10492209 4.47353804 14.13290019 6.26580037 16 10 C12.88801935 8.50163895 9.9465385 6.80066242 7 5 C7.66 7.64 8.32 10.28 9 13 C8.34 13 7.68 13 7 13 C7 12.34 7 11.68 7 11 C6.34 11 5.68 11 5 11 C3.35 7.37 1.7 3.74 0 0 Z " fill="#2D3974" transform="translate(345,79)"/>
<path d="M0 0 C0.33 0 0.66 0 1 0 C1.84097163 6.0069402 0.32818376 10.09106702 -2.375 15.4375 C-2.69154541 16.06479004 -3.00809082 16.69208008 -3.33422852 17.33837891 C-5.71512373 21.85756186 -5.71512373 21.85756186 -8 23 C-7.38684716 19.18329581 -6.24019203 16.09986361 -4.5625 12.625 C-2.60527214 8.44467806 -1.09457352 4.47780075 0 0 Z " fill="#1C2066" transform="translate(299,285)"/>
<path d="M0 0 C0 0.99 0 1.98 0 3 C-8.59509285 6.75058597 -16.80621145 6.28499689 -26 6 C-26 5.67 -26 5.34 -26 5 C-25.00097656 4.95101562 -24.00195312 4.90203125 -22.97265625 4.8515625 C-21.68230469 4.77679688 -20.39195312 4.70203125 -19.0625 4.625 C-17.77472656 4.55539063 -16.48695313 4.48578125 -15.16015625 4.4140625 C-14.11730469 4.27742187 -13.07445312 4.14078125 -12 4 C-11.67 3.34 -11.34 2.68 -11 2 C-9.00390625 1.3671875 -9.00390625 1.3671875 -6.5625 0.875 C-5.75941406 0.70742187 -4.95632812 0.53984375 -4.12890625 0.3671875 C-2 0 -2 0 0 0 Z " fill="#A4A5BE" transform="translate(195,218)"/>
<path d="M0 0 C1.2109375 1.578125 1.2109375 1.578125 2 4 C0.98613427 6.4546223 -0.02723255 8.49546254 -1.375 10.75 C-1.71789062 11.35199219 -2.06078125 11.95398438 -2.4140625 12.57421875 C-3.26177818 14.05772119 -4.12905505 15.53001487 -5 17 C-5.66 17 -6.32 17 -7 17 C-5.1668733 11.00067626 -2.92678249 5.55079437 0 0 Z " fill="#B4B5C5" transform="translate(154,340)"/>
<path d="M0 0 C1.16144531 0.00902344 2.32289063 0.01804688 3.51953125 0.02734375 C4.39996094 0.03894531 5.28039062 0.05054688 6.1875 0.0625 C3.43212948 2.81787052 0.5828417 2.75627341 -3.125 3.1875 C-3.78951172 3.27386719 -4.45402344 3.36023438 -5.13867188 3.44921875 C-8.71593219 3.89504941 -12.20833495 4.16009828 -15.8125 4.0625 C-10.90720268 -0.1160866 -6.27264464 -0.06336005 0 0 Z " fill="#525887" transform="translate(360.8125,224.9375)"/>
<path d="M0 0 C2 3 2 3 3 5.125 C3.85860158 7.17044538 3.85860158 7.17044538 6 8 C6 9.32 6 10.64 6 12 C4.948125 11.566875 4.948125 11.566875 3.875 11.125 C0.94547497 9.97866412 -2.00921653 8.97374346 -5 8 C-4.01 7.67 -3.02 7.34 -2 7 C-1.22227595 4.66682784 -0.57584432 2.38564077 0 0 Z " fill="#BDBED0" transform="translate(264,165)"/>
<path d="M0 0 C0.33 0 0.66 0 1 0 C2.67173466 5.77508339 1.21121958 10.58397318 -1 16 C-1.66 16.66 -2.32 17.32 -3 18 C-4.02859394 14.8128075 -3.93332487 12.73329948 -3.125 9.5 C-2.94195312 8.7471875 -2.75890625 7.994375 -2.5703125 7.21875 C-2.38210938 6.4865625 -2.19390625 5.754375 -2 5 C-1.83242188 4.2678125 -1.66484375 3.535625 -1.4921875 2.78125 C-1 1 -1 1 0 0 Z " fill="#9FA1B9" transform="translate(348,121)"/>
<path d="M0 0 C4.03520597 1.58962659 8.01811282 3.28232318 12 5 C11.01 5.495 11.01 5.495 10 6 C9.01 7.485 9.01 7.485 8 9 C5.125 7.875 5.125 7.875 2 6 C0.625 2.8125 0.625 2.8125 0 0 Z " fill="#2B3A7B" transform="translate(331,72)"/>
<path d="M0 0 C3.34292611 3.1019945 5.76244801 6.43575362 8.25 10.25 C8.95640625 11.32765625 9.6628125 12.4053125 10.390625 13.515625 C10.92171875 14.33546875 11.4528125 15.1553125 12 16 C11.01 16 10.02 16 9 16 C6.9921875 13.76953125 6.9921875 13.76953125 4.875 10.8125 C3.81925781 9.36810547 3.81925781 9.36810547 2.7421875 7.89453125 C1.07777577 5.12921939 0.38278144 3.1724462 0 0 Z " fill="#0C0D23" transform="translate(313,410)"/>
<path d="M0 0 C10.55808656 0.77904328 10.55808656 0.77904328 15 3 C14.67 3.66 14.34 4.32 14 5 C8.67061191 4.66328485 4.37173367 4.384568 0 1 C0 0.67 0 0.34 0 0 Z " fill="#D8D9E3" transform="translate(331,195)"/>
<path d="M0 0 C0 3 0 3 -2.375 5.5 C-3.24125 6.325 -4.1075 7.15 -5 8 C-5.99 9.485 -5.99 9.485 -7 11 C-7.66 11 -8.32 11 -9 11 C-8.72217314 7.01781501 -8.20726652 5.25090158 -5.625 2.125 C-3 0 -3 0 0 0 Z " fill="#E5E5EC" transform="translate(316,143)"/>
<path d="M0 0 C0.680625 -0.00257813 1.36125 -0.00515625 2.0625 -0.0078125 C4 0.125 4 0.125 7 1.125 C7.6875 3.1875 7.6875 3.1875 8 5.125 C7.030625 4.795 6.06125 4.465 5.0625 4.125 C0.70233163 2.85626248 -3.49554566 2.94114472 -8 3.125 C-6.30993087 -0.25513825 -3.41330745 -0.01292919 0 0 Z " fill="#71759B" transform="translate(380,155.875)"/>
<path d="M0 0 C3 5.22222222 3 5.22222222 3 8 C2.34 8 1.68 8 1 8 C0.731875 7.360625 0.46375 6.72125 0.1875 6.0625 C-0.88667752 3.66868314 -0.88667752 3.66868314 -4 3 C-4.33 4.65 -4.66 6.3 -5 8 C-5.97608217 5.07175348 -6.08226668 3.04386724 -6 0 C-3 -1 -3 -1 0 0 Z " fill="#61658F" transform="translate(322,226)"/>
<path d="M0 0 C3.65272086 1.05736657 6.86992958 2.853666 10 5 C10 5.66 10 6.32 10 7 C4.71862571 6.48474397 1.42778844 4.74522883 -3 2 C-2.01 1.34 -1.02 0.68 0 0 Z " fill="#C6C7D7" transform="translate(389,162)"/>
<path d="M0 0 C2.02045442 0.60183749 4.02111039 1.27306096 6 2 C7 4 7 4 6.375 6.5625 C5 9 5 9 2.375 9.8125 C1.199375 9.9053125 1.199375 9.9053125 0 10 C-0.33 9.01 -0.66 8.02 -1 7 C-1.66 6.67 -2.32 6.34 -3 6 C-2.01 6 -1.02 6 0 6 C0 6.66 0 7.32 0 8 C3.24849977 6.27773504 3.24849977 6.27773504 4 3 C2.68 2.67 1.36 2.34 0 2 C0 1.34 0 0.68 0 0 Z " fill="#8386A7" transform="translate(273,181)"/>
<path d="M0 0 C2.97 0.99 5.94 1.98 9 3 C8.67 4.32 8.34 5.64 8 7 C7.01 7.33 6.02 7.66 5 8 C4.67 7.01 4.34 6.02 4 5 C3.01 4.67 2.02 4.34 1 4 C0.67 2.68 0.34 1.36 0 0 Z " fill="#D6D7E2" transform="translate(268,181)"/>
<path d="M0 0 C1.65 0 3.3 0 5 0 C3.68 0.33 2.36 0.66 1 1 C1.7425 1.7425 2.485 2.485 3.25 3.25 C5.5 5.5 7.75 7.75 10 10 C4.96014269 9.55530671 2.62365012 7.28656638 -1 4 C-0.67 2.68 -0.34 1.36 0 0 Z " fill="#0E0F30" transform="translate(76,176)"/>
<path d="M0 0 C0.33 0 0.66 0 1 0 C1.19627391 1.58226965 1.38165538 3.16589271 1.5625 4.75 C1.66691406 5.63171875 1.77132813 6.5134375 1.87890625 7.421875 C1.9968507 9.93295031 1.73088982 11.61855767 1 14 C0.814375 14.7425 0.62875 15.485 0.4375 16.25 C0.2209375 17.11625 0.2209375 17.11625 0 18 C-2.4797048 6.79704797 -2.4797048 6.79704797 -2 2 C-1.34 1.34 -0.68 0.68 0 0 Z " fill="#9FA1B9" transform="translate(285,345)"/>
<path d="M0 0 C4.8201361 0.59736729 8.08795197 1.0657069 11.5625 4.625 C13.34634441 8.81315643 13.31097468 11.49086716 13 16 C12.34 16.33 11.68 16.66 11 17 C11.0928125 15.1746875 11.0928125 15.1746875 11.1875 13.3125 C11.15972494 9.39621619 10.77781063 6.95702422 8 4 C4.40080577 3.10407917 4.40080577 3.10407917 1 3 C0.67 2.01 0.34 1.02 0 0 Z " fill="#9799B4" transform="translate(359,165)"/>
<path d="M0 0 C0.33 0 0.66 0 1 0 C2.51708428 12.66970387 2.51708428 12.66970387 0 18 C-0.33 18 -0.66 18 -1 18 C-1.18451025 5.33029613 -1.18451025 5.33029613 0 0 Z " fill="#9296B0" transform="translate(277,143)"/>
<path d="M0 0 C0.99 0.33 1.98 0.66 3 1 C1.35 4.63 -0.3 8.26 -2 12 C-2.66 11.67 -3.32 11.34 -4 11 C-3.39301257 6.87248551 -1.96189209 3.6678852 0 0 Z " fill="#191940" transform="translate(160,333)"/>
<path d="M0 0 C0 0.99 0 1.98 0 3 C-9.41002278 5.29612756 -9.41002278 5.29612756 -14 5 C-13.360625 4.71125 -12.72125 4.4225 -12.0625 4.125 C-9.84793921 3.17176549 -9.84793921 3.17176549 -9 1 C-5.85554549 0.15014743 -3.29227921 0 0 0 Z " fill="#C1C3D4" transform="translate(374,225)"/>
<path d="M0 0 C1.41750563 0.11509661 2.83401169 0.24253658 4.25 0.375 C5.03890625 0.44460937 5.8278125 0.51421875 6.640625 0.5859375 C9.085877 1.01507113 10.84836903 1.78600638 13 3 C12.67 3.33 12.34 3.66 12 4 C3.71320755 3.32075472 3.71320755 3.32075472 0 1 C0 0.67 0 0.34 0 0 Z " fill="#D2D3E0" transform="translate(337,241)"/>
<path d="M0 0 C4.97306516 0.49730652 8.63799813 1.55302334 13 4 C13 4.66 13 5.32 13 6 C3.40546697 3.10933941 3.40546697 3.10933941 0 0 Z " fill="#1E1F47" transform="translate(118,206)"/>
<path d="M0 0 C0.33 0 0.66 0 1 0 C1.33 1.65 1.66 3.3 2 5 C2.33 5 2.66 5 3 5 C3.6875 8.3125 3.6875 8.3125 4 12 C2.5625 13.9375 2.5625 13.9375 1 15 C-0.66251802 9.42567486 -1.18609365 5.6932495 0 0 Z " fill="#D4D5DF" transform="translate(273,150)"/>
<path d="M0 0 C2.91517292 1.07401108 4.77810176 1.77810176 7 4 C6.34 4 5.68 4 5 4 C5 4.66 5 5.32 5 6 C4.01 6.33 3.02 6.66 2 7 C0 4 0 4 0 0 Z " fill="#C2C4D4" transform="translate(238,154)"/>
<path d="M0 0 C3.2542015 2.83430453 4.5206753 4.68607774 5 9 C4.01 8.67 3.02 8.34 2 8 C1.67 8.66 1.34 9.32 1 10 C0.67 6.7 0.34 3.4 0 0 Z " fill="#8285A5" transform="translate(262,153)"/>
<path d="M0 0 C0 0.33 0 0.66 0 1 C-1.36125 1.4021875 -1.36125 1.4021875 -2.75 1.8125 C-5.71471963 2.89576294 -7.6169754 3.98359457 -10 6 C-10.99 5.34 -11.98 4.68 -13 4 C-8.48649253 0.47726246 -5.71658336 -0.45732667 0 0 Z " fill="#C3C5D3" transform="translate(332,133)"/>
<path d="M0 0 C2.64 0.33 5.28 0.66 8 1 C6.68 1.33 5.36 1.66 4 2 C4 2.66 4 3.32 4 4 C4.66 4 5.32 4 6 4 C6 4.99 6 5.98 6 7 C4 7 4 7 1.875 5.1875 C0 3 0 3 0 0 Z " fill="#A4A7BF" transform="translate(328,223)"/>
<path d="M0 0 C3.21852831 0.63065757 5.50801069 1.78020695 8.25 3.5625 C8.95640625 4.01753906 9.6628125 4.47257813 10.390625 4.94140625 C11.18726563 5.46541016 11.18726563 5.46541016 12 6 C11.01 6.33 10.02 6.66 9 7 C6.73828125 5.8203125 6.73828125 5.8203125 4.3125 4.125 C3.50425781 3.57070312 2.69601562 3.01640625 1.86328125 2.4453125 C1.24839844 1.96835938 0.63351562 1.49140625 0 1 C0 0.67 0 0.34 0 0 Z " fill="#545988" transform="translate(387,159)"/>
<path d="M0 0 C0.99 0 1.98 0 3 0 C3 2.97 3 5.94 3 9 C2.34 9 1.68 9 1 9 C-0.4783226 6.04335481 -0.06032783 3.25770263 0 0 Z " fill="#DBDCE5" transform="translate(256,140)"/>
<path d="M0 0 C6.75 0.875 6.75 0.875 9 2 C9 2.66 9 3.32 9 4 C2.25 3.125 2.25 3.125 0 2 C0 1.34 0 0.68 0 0 Z " fill="#D4D5E1" transform="translate(332,225)"/>
<path d="M0 0 C3 3 3 3 3.29296875 5.04296875 C3.1953125 7.02864583 3.09765625 9.01432292 3 11 C2.34 11 1.68 11 1 11 C0.67 7.37 0.34 3.74 0 0 Z " fill="#C3C3D0" transform="translate(285,354)"/>
<path d="M0 0 C3.32690456 3.32690456 3.62257808 4.47093701 4 9 C3.67 9.99 3.34 10.98 3 12 C2.01 11.67 1.02 11.34 0 11 C0.66 11 1.32 11 2 11 C1.34 7.37 0.68 3.74 0 0 Z " fill="#9B9EB6" transform="translate(308,163)"/>
<path d="M0 0 C2.64 0.33 5.28 0.66 8 1 C8.33 1.99 8.66 2.98 9 4 C2.25 3.125 2.25 3.125 0 2 C0 1.34 0 0.68 0 0 Z " fill="#636791" transform="translate(294,226)"/>
<path d="M0 0 C0 0.66 0 1.32 0 2 C0.66 2.33 1.32 2.66 2 3 C-0.64 3.66 -3.28 4.32 -6 5 C-6 4.01 -6 3.02 -6 2 C-2.25 0 -2.25 0 0 0 Z " fill="#A7A9C4" transform="translate(215,207)"/>
<path d="M0 0 C0.99 0.33 1.98 0.66 3 1 C2.01 2.98 1.02 4.96 0 7 C-0.99 6.67 -1.98 6.34 -3 6 C-1.125 1.125 -1.125 1.125 0 0 Z " fill="#B3B4C0" transform="translate(181,290)"/>
<path d="M0 0 C0.99 1.32 1.98 2.64 3 4 C2.01 5.485 2.01 5.485 1 7 C0.34 7 -0.32 7 -1 7 C-1.33 5.02 -1.66 3.04 -2 1 C-1.34 0.67 -0.68 0.34 0 0 Z " fill="#B9BBCD" transform="translate(280,170)"/>
<path d="M0 0 C2.35448165 2.55068845 2.98327924 3.71017358 3.1875 7.25 C3.125625 8.1575 3.06375 9.065 3 10 C1.10786631 7.61426621 -0.02391783 5.92824652 -1 3 C-0.67 2.01 -0.34 1.02 0 0 Z " fill="#8F91AE" transform="translate(345,114)"/>
<path d="M0 0 C2.64 1.65 5.28 3.3 8 5 C7.01 5.33 6.02 5.66 5 6 C1.8125 4.0625 1.8125 4.0625 -1 2 C-0.67 1.34 -0.34 0.68 0 0 Z " fill="#121338" transform="translate(87,186)"/>
<path d="M0 0 C0.33 0 0.66 0 1 0 C1.33 2.97 1.66 5.94 2 9 C1.34 9 0.68 9 0 9 C-1.0625 7.1875 -1.0625 7.1875 -2 5 C-1 2 -1 2 0 0 Z " fill="#D7D8E1" transform="translate(308,165)"/>
<path d="M0 0 C1.953125 0.35807292 3.90625 0.71614583 5.859375 1.07421875 C5.859375 1.40421875 5.859375 1.73421875 5.859375 2.07421875 C-0.080625 2.56921875 -0.080625 2.56921875 -6.140625 3.07421875 C-2.140625 0.07421875 -2.140625 0.07421875 0 0 Z " fill="#676C95" transform="translate(351.140625,225.92578125)"/>
<path d="M0 0 C2.02045442 0.60183749 4.02111039 1.27306096 6 2 C6.33 2.66 6.66 3.32 7 4 C6.01 5.485 6.01 5.485 5 7 C4.67 6.01 4.34 5.02 4 4 C1.99983534 2.79117904 1.99983534 2.79117904 0 2 C0 1.34 0 0.68 0 0 Z " fill="#75799D" transform="translate(273,181)"/>
<path d="M0 0 C1.98 0 3.96 0 6 0 C5.67 0.99 5.34 1.98 5 3 C2.9375 3.6875 2.9375 3.6875 1 4 C0.67 2.68 0.34 1.36 0 0 Z " fill="#8286A6" transform="translate(364,159)"/>
<path d="M0 0 C0.66 0 1.32 0 2 0 C2.66 1.98 3.32 3.96 4 6 C3.01 6.33 2.02 6.66 1 7 C-0.0625 4.625 -0.0625 4.625 -1 2 C-0.67 1.34 -0.34 0.68 0 0 Z " fill="#C9CBD8" transform="translate(336,105)"/>
</svg>
